<?xml version="1.0" encoding="utf-8"?>
<!-- Generator: Adobe Illustrator 18.0.0, SVG Export Plug-In . SVG Version: 6.00 Build 0)  -->
<!DOCTYPE svg PUBLIC "-//W3C//DTD SVG 1.1//EN" "http://www.w3.org/Graphics/SVG/1.1/DTD/svg11.dtd">
<svg version="1.1" id="Слой_1" xmlns="http://www.w3.org/2000/svg" xmlns:xlink="http://www.w3.org/1999/xlink" x="0px" y="0px"
	 viewBox="0 0 689.1 434.5" enable-background="new 0 0 689.1 434.5" xml:space="preserve">
<g>
	<g>
		<g>
			<g>
				<path fill="#BC5261" d="M207.6,87c-0.6-0.8-1.2-1.7-1.8-2.6s-1.3-1.8-1.8-2.7s-1.1-1.9-1.4-2.8l-0.1-0.2l0,0l0-0.1l-0.1-0.4
					l-0.3-0.8l-0.1-0.7l-0.1-0.3c0-0.1,0-0.2,0-0.3c-0.1-0.9,0.1-1.8,0.3-2.6c0.2-0.8,0.6-1.5,1.2-2.3c0.5-0.7,1-1.4,1.6-2
					c0.6-0.6,1.1-1.2,1.6-1.7c0.5-0.5,0.9-1,1.3-1.4c0.3-0.4,0.6-0.8,0.8-1c0.2-0.2,0.3-0.4,0.3-0.4c0-0.1,0.1-0.1,0.1-0.1
					c0.8-1.1,0.5-2.6-0.6-3.4c-1.1-0.8-2.6-0.5-3.4,0.6L205,62c0,0-0.1,0.1-0.2,0.3c-0.2,0.2-0.4,0.5-0.6,0.9
					c-0.3,0.4-0.6,0.9-1.1,1.4c-0.4,0.6-0.9,1.2-1.5,1.9c-0.5,0.7-1.2,1.5-1.7,2.5c-0.6,1-1.1,2.1-1.4,3.5c-0.3,1.3-0.4,2.7-0.1,4
					c0,0.2,0,0.3,0.1,0.5l0.1,0.5c0.1,0.3,0.2,0.7,0.3,1l0.3,0.8l0.2,0.4l0,0.1l0,0.1l0,0l0,0l0,0.1l0.1,0.2c0.5,1.2,1.2,2.2,2,3.2
					s1.5,1.8,2.2,2.7c0.6,0.7,1.2,1.5,1.8,2.2c0.9-0.3,1.9-0.5,2.8-0.7C208,87.5,207.8,87.3,207.6,87z"/>
				<path fill="#BC5261" d="M227.1,92.9c1-0.4,2.1-0.7,3.3-1.2c1.1-0.5,2.3-1,3.3-1.7l0.2-0.1l0.1,0l0,0l0,0l0.1-0.1l0.1-0.1
					l0.4-0.3l0.7-0.5c0.2-0.2,0.5-0.5,0.8-0.7l0.4-0.4c0.1-0.1,0.2-0.3,0.3-0.4c0.9-1,1.6-2.3,2-3.5c0.4-1.3,0.5-2.5,0.6-3.7
					c0-1.1-0.1-2.2-0.1-3.1c-0.1-0.9-0.2-1.7-0.3-2.4s-0.1-1.3-0.2-1.8c0-0.5,0-0.8-0.1-1.1c0-0.2,0-0.4,0-0.4l0-0.1
					c0-0.1,0-0.1,0-0.2c-0.2-1.3-1.4-2.3-2.7-2.1c-1.3,0.2-2.3,1.4-2.1,2.7c0,0,0,0.2,0,0.5c0,0.3,0.1,0.7,0.2,1.3
					c0.1,0.5,0.2,1.2,0.4,1.9c0.1,0.7,0.3,1.5,0.5,2.3c0.1,0.8,0.3,1.7,0.3,2.5s0,1.7-0.2,2.5c-0.2,0.8-0.5,1.6-1.1,2.3
					c-0.1,0.1-0.1,0.2-0.2,0.3l-0.2,0.3l-0.4,0.5l-0.7,0.6L232,87l-0.1,0l0,0l-0.1,0.1c-0.8,0.6-1.7,1.1-2.7,1.6c-1,0.5-2,0.9-3,1.4
					c-1,0.4-2,0.8-2.9,1.3c-0.3,0.1-0.6,0.3-0.9,0.4c0.7,0.6,1.4,1.3,2,2C225.2,93.5,226.1,93.2,227.1,92.9z"/>
				<path fill="#BC5261" d="M166.3,105.2l-3.1-33c-0.1-1.6-1.6-2.8-3.2-2.7c-1.6,0.1-2.8,1.6-2.7,3.2l3.2,34.4
					c0.1,0.9,0.5,1.6,1.3,2.2l10.4,7.2c1.5-1.4,3.2-2.7,4.8-3.8L166.3,105.2z"/>
				<path fill="#BC5261" d="M146.9,124c-1-0.5-2.2-0.2-3.1,0.5l-19.4,17l-12.9-0.1c-1.6,0-3,1.3-3,2.9c0,1.4,0.9,2.5,2.2,2.9
					c0.3,0.1,0.5,0.1,0.8,0.1l14,0.1c0.7,0,1.4-0.3,2-0.7l18.9-16.5l12.1,5c0.9-1.8,1.8-3.5,2.8-5.2L146.9,124z"/>
				<path fill="#BC5261" d="M144.1,153.9c-1.2-0.3-2.5,0.1-3.3,1.2l-18.9,27.8l-14.1,1.9c-1.6,0.2-2.7,1.7-2.5,3.3
					c0.2,1.2,1,2.2,2.1,2.5c0.4,0.1,0.8,0.2,1.2,0.1l15.4-2c0.9-0.1,1.6-0.5,2.1-1.3l18.4-27.1l7.2,2c0.1-2,0.2-4,0.5-6L144.1,153.9
					L144.1,153.9z"/>
				<path fill="#BC5261" d="M254.2,135.2c0.9,0,1.7-0.5,2.2-1.2l20.6-27.7c1-1.3,0.7-3.2-0.6-4.1c-1.3-1-3.2-0.7-4.1,0.6l-19.8,26.6
					l-16.3,0.9c0.7,1.9,1.4,3.8,2,5.8L254.2,135.2z"/>
				<path fill="#BC5261" d="M280.4,188.8l-11-6.6l-7.7-24.6c-0.4-1.1-1.2-1.8-2.3-2l-19.1-2.9c0,2-0.2,3.9-0.3,5.9l16.7,2.6
					l7.5,23.9c0.2,0.7,0.7,1.3,1.3,1.6l12,7.2c0.2,0.1,0.5,0.2,0.7,0.3c1.3,0.4,2.6-0.1,3.3-1.3
					C282.3,191.4,281.8,189.6,280.4,188.8z"/>
				<path fill="#BC5261" d="M242.4,187.6l1.6,32.8c0,0.8,0.4,1.6,1.1,2.2l12.1,9.8c0.3,0.3,0.7,0.5,1.1,0.6c1.1,0.3,2.3-0.1,3.1-1
					c1-1.3,0.8-3.1-0.4-4.1l-11.1-9l-1.6-33.6c-0.1-1.3-0.9-2.4-2.2-2.7l-11.9-3.3c-0.9,1.9-1.7,3.6-2.7,5.3L242.4,187.6
					L242.4,187.6z"/>
				<path fill="#BC5261" d="M222.7,112.1c0.5-0.9,1-2,1.3-3c2.1-7.3-2.2-14.9-9.5-17c-7.3-2.1-14.9,2.2-17,9.5
					c-0.3,1.1-0.4,2.2-0.5,3.3c4.6-0.5,9.1-0.2,13.6,1.1C215,107.2,219.1,109.2,222.7,112.1z"/>
				<path fill="#BC5261" d="M171.9,122.2L235,140c-3.2-15.3-12.8-26.8-25.5-30.4C196.8,106.1,182.7,110.9,171.9,122.2z"/>
				<path fill="#BC5261" d="M235.8,144.3l-66.7-18.7c-5,6.1-8.8,13.6-11,21.7c-7.5,26.6,3.4,53,24.4,58.9s44-11,51.5-37.6
					C236.2,160.5,236.8,152.2,235.8,144.3z"/>
			</g>
			<path fill="#0C0E0F" d="M58,107.4c11.1-39.5,37.1-70.2,69.7-88.5l0,0C160.9,0.3,200.5-5.3,240.1,5.3c39,11,70.2,37.1,88.5,69.7
				c16.5,29.4,22.7,64.2,16.3,98.9l27.1,7.7c10.8-16.4,32-24.5,51.7-19l123.4,34.8c25.2,7.1,39.7,33,32.6,58.2l0,0
				c-7.4,24.5-33.1,38.9-57.9,32.4l-123.4-34.8c-19.7-5.6-33.1-23.4-34.5-43l-27.5-8.3c-12.8,32.1-36.2,57.7-65,73.8
				c-32.9,18.4-72.4,24.3-111.9,13.2c-39-11-70.2-37.1-88.5-69.7C52.9,186.7,47,146.4,58,107.4L58,107.4z M313,181.4l0-0.8
				c0.3-0.2,0.1-0.5,0.5-0.7c8.9-31.6,4-63.3-10.9-89.9c-14.9-26.6-39.5-46.8-70.8-55.9c-31.6-8.9-63.3-4-89.9,10.9l0,0
				C115.9,59.5,95,84.6,85.9,115.8c-8.9,31.6-4.2,63,10.7,89.6s39.7,47.1,71,56.2c31.2,8.3,63.1,3.7,89.4-11
				C283.3,235.9,303.9,211.9,313,181.4L313,181.4z"/>
		</g>
		<g>
			<path fill="#BC5261" d="M7.6,401.9v-85.3h29.9c10.4,0,18.2,2,23.6,5.9c5.4,4,8,9.8,8,17.4c0,4.2-1.1,7.9-3.2,11
				c-2.1,3.2-5.1,5.5-9,7c4.4,1.1,7.8,3.3,10.3,6.6c2.5,3.3,3.8,7.4,3.8,12.2c0,8.2-2.6,14.4-7.9,18.6c-5.2,4.2-12.7,6.4-22.4,6.4
				H7.6z M25.2,352.4h13c8.9-0.2,13.3-3.7,13.3-10.6c0-3.9-1.1-6.7-3.4-8.3c-2.2-1.7-5.8-2.5-10.6-2.5H25.2V352.4z M25.2,364.8v23
				h15.1c4.1,0,7.4-1,9.7-3c2.3-2,3.5-4.7,3.5-8.2c0-7.8-4-11.8-12.1-11.9H25.2z"/>
			<path fill="#BC5261" d="M139.4,333.7v44.2c0,7.8-2.5,13.9-7.6,18.3s-12.1,6.7-21,6.7c-8.9,0-16-2.2-21.1-6.7
				c-5.1-4.5-7.7-10.5-7.7-18.3v-44.2h17v45c0.2,7,4.2,10.5,11.8,10.5c3.8,0,6.7-0.9,8.6-2.6c2-1.8,3-4.6,3-8.7v-44.3H139.4z"/>
			<path fill="#BC5261" d="M210.3,393.7c-2.7,2.8-6.5,5-11.6,6.7s-10.9,2.5-17.3,2.5c-9.8,0-17.5-2.9-23.3-8.6
				c-5.7-5.7-8.7-13.6-8.9-23.6v-4.6c0-10.3,2.8-18.4,8.4-24.4c5.6-6,13.2-8.9,22.7-8.9c9,0,16,2,21,5.9c5,3.9,7.9,9.9,8.8,17.8
				h-16.3c-0.5-3.3-1.8-5.8-3.7-7.5c-1.9-1.7-5-2.5-9.2-2.5c-4.7,0-8.3,1.6-10.9,4.9c-2.6,3.2-3.9,8-3.9,14.4v4
				c0,6.7,1.3,11.6,4,14.8c2.7,3.2,6.8,4.8,12.2,4.8c4.9,0,8.5-0.8,10.7-2.4v-9.7h-13.1v-12h30.2V393.7z"/>
			<path d="M289,373.5c-0.7,9.2-4.1,16.4-10.2,21.7c-6.1,5.3-14.2,7.9-24.2,7.9c-10.9,0-19.5-3.7-25.8-11
				c-6.3-7.4-9.4-17.5-9.4-30.3v-5.2c0-8.2,1.4-15.4,4.3-21.7c2.9-6.2,7-11,12.4-14.4c5.4-3.3,11.6-5,18.7-5
				c9.8,0,17.8,2.6,23.8,7.9c6,5.3,9.5,12.7,10.4,22.2h-17.6c-0.4-5.5-2-9.5-4.6-12c-2.6-2.5-6.7-3.7-12-3.7
				c-5.9,0-10.2,2.1-13.2,6.3c-2.9,4.2-4.4,10.7-4.5,19.5v6.4c0,9.2,1.4,16,4.2,20.2c2.8,4.3,7.2,6.4,13.2,6.4
				c5.4,0,9.5-1.2,12.2-3.7c2.7-2.5,4.2-6.3,4.6-11.5H289z"/>
			<path d="M341.1,388.9h-26.4l-4.8,13h-17l27-68.3h15.9l27.2,68.3H346L341.1,388.9z M319.3,376.5h17.2l-8.6-23.1L319.3,376.5z"/>
			<path d="M422.1,347.3h-22.1v54.6h-17v-54.6h-21.7v-13.7h60.9V347.3z"/>
			<path d="M488.8,378.6c-0.5,7.5-3.4,13.4-8.8,17.8c-5.4,4.4-12.5,6.6-21.4,6.6c-9.5,0-17-2.9-22.4-8.7s-8.3-13.8-8.4-24v-3.9
				c0-10.2,2.8-18.3,8.3-24.4c5.5-6.1,13-9.1,22.4-9.1c8.8,0,15.9,2.2,21.2,6.6c5.3,4.4,8.4,10.5,9.1,18.3h-16.9
				c-0.4-7.5-4.9-11.3-13.4-11.3c-8.9,0-13.5,6.2-13.8,18.7v4.3c0,7,1.1,12,3.3,15.2s5.7,4.7,10.6,4.7c4.3,0,7.5-0.9,9.6-2.6
				s3.3-4.4,3.5-8.1H488.8z"/>
			<path d="M558.5,401.9h-16.9v-26.6h-27v26.6h-17v-68.3h17v28h27v-28h16.9V401.9z"/>
			<path d="M615.3,373.5h-28.2v14.8h33.2v13.7h-50.2v-68.3h50.2v13.7h-33.2v12.5h28.2V373.5z"/>
			<path d="M655.5,378.4h-10.6v23.6h-17v-68.3h28.5c8.7,0,15.4,1.8,20.3,5.4c4.8,3.6,7.3,8.6,7.3,15.1c0,4.8-1,8.8-3,12
				c-2,3.1-5.3,5.7-9.8,7.7l15.5,27.4v0.7h-18.3L655.5,378.4z M644.9,364.7h11.5c7.1,0,10.6-2.9,10.6-8.8c0-5.8-3.7-8.6-11.1-8.6
				h-11V364.7z"/>
		</g>
	</g>
</g>
</svg>
