<?xml version="1.0" encoding="utf-8"?>
<!-- Generator: Adobe Illustrator 18.0.0, SVG Export Plug-In . SVG Version: 6.00 Build 0)  -->
<!DOCTYPE svg PUBLIC "-//W3C//DTD SVG 1.1//EN" "http://www.w3.org/Graphics/SVG/1.1/DTD/svg11.dtd">
<svg version="1.1" id="Layer_1" xmlns="http://www.w3.org/2000/svg" xmlns:xlink="http://www.w3.org/1999/xlink" x="0px" y="0px"
	 viewBox="0 0 595.3 841.9" enable-background="new 0 0 595.3 841.9" xml:space="preserve">
<path fill="#F1CD6E" d="M356.8,260.4H253c-2.6,0-5.3-2.5-5.3-2.5l-6.9-5.3c0,0-4-2.8-5.8-2.8h-26.7c-6.5,0-12,5.3-12,12v50.1
	c0,6.5,5.3,12,12,12H357c6.5,0,12-5.3,12-12v-39.7C368.7,265.7,363.5,260.4,356.8,260.4z"/>
<path fill="#E8E4C8" d="M189,275.9h187.1v41.5H189C189,317.4,189,275.9,189,275.9z"/>
<path fill="#EFEFEF" d="M182,285h200.7v42.2L182,327C182,327,182,285,182,285z"/>
<path fill="#EFC75E" d="M180.6,293.8h204c5.8,0,10.6,4.7,10.6,10.6v130.1c0,5.8-4.7,10.6-10.6,10.6h-204c-5.8,0-10.6-4.7-10.6-10.6
	V304.4C170,298.6,174.7,293.8,180.6,293.8z"/>
<path fill="#D7B354" d="M320.2,325.4c-8,0-14.5,6.5-14.5,14.5c0,8,6.5,14.5,14.5,14.5c8,0,14.5-6.5,14.5-14.5
	C334.7,331.8,328.2,325.4,320.2,325.4z"/>
<path fill="#D7B354" d="M241.2,325.4c-8,0-14.5,6.5-14.5,14.5c0,8,6.5,14.5,14.5,14.5c8,0,14.5-6.5,14.5-14.5
	C255.7,331.8,249.2,325.4,241.2,325.4z"/>
<path fill="#D65656" d="M220.3,411.1c58.7-84.2,121.3,0,121.3,0s-26.6-23.6-61.1-26C247.7,382.9,220.3,411.1,220.3,411.1z"/>
</svg>
