<?xml version="1.0" encoding="utf-8"?>
<!-- Generator: Adobe Illustrator 18.0.0, SVG Export Plug-In . SVG Version: 6.00 Build 0)  -->
<!DOCTYPE svg PUBLIC "-//W3C//DTD SVG 1.1//EN" "http://www.w3.org/Graphics/SVG/1.1/DTD/svg11.dtd">
<svg version="1.1" id="Layer_1" xmlns="http://www.w3.org/2000/svg" xmlns:xlink="http://www.w3.org/1999/xlink" x="0px" y="0px"
	 width="1400px" height="980px" viewBox="0 0 1400 980" enable-background="new 0 0 1400 980" xml:space="preserve">
<path fill-rule="evenodd" clip-rule="evenodd" fill="#3F3938" d="M555.9,342.9c15.5-15.5,40.9-15.5,56.5,0c15.5,15.7,15.5,41,0,56.5
	c-15.7,15.7-41,15.7-56.5,0C540.2,383.8,540.2,358.5,555.9,342.9L555.9,342.9z M620.9,402.7c4.8-2.5,11-1.6,15.1,2.4l24.9,25
	c5.1,5.1,5.1,13.3,0,18.4l0,0c-4.9,4.9-13.2,4.9-18.3,0l-25-25c-4-4-4.8-10.1-2.4-15l-3.2-3.1c1.2-0.9,2.2-2,3.3-2.9
	c0.8-0.9,1.6-1.9,2.5-2.8L620.9,402.7z M647.5,434.5c2.4-2.5,6.4-2.5,8.8,0c2.5,2.5,2.5,6.5,0,8.8c-2.5,2.5-6.5,2.5-8.8,0
	C645.1,441,645.1,437,647.5,434.5L647.5,434.5z M570.5,357.5c-1.5,1.6-4.1,1.6-5.8,0c-1.5-1.5-1.5-4.1,0-5.7
	c5.2-5.2,11.8-7.8,18.5-8c6.7-0.2,13.5,2,19,6.7c1.6,1.5,1.9,4.1,0.4,5.8c-1.4,1.6-4,1.9-5.8,0.4c-3.8-3.3-8.6-4.9-13.3-4.7
	C578.7,352,574.2,353.9,570.5,357.5L570.5,357.5z"/>
<path fill="#3F3938" d="M457.7,397.6l4.9,5.1c4.8-2.5,11-1.6,15,2.4l25,25c5.1,5.1,5.1,13.3,0,18.4l0,0c-5.1,4.9-13.3,4.9-18.3,0
	l-25-25c-4-4-4.8-10.1-2.5-15l-5.2-5.3c-15.7,11.8-37.9,10.5-52.2-3.8c-15.5-15.5-15.5-40.9,0-56.5c15.7-15.5,40.9-15.5,56.5,0
	C471.1,357.9,471.6,382,457.7,397.6L457.7,397.6z M409,398.7c-9.3-12.8-8.2-31,3.3-42.6c11.7-11.5,29.8-12.7,42.6-3.3
	c-0.9-1.4-2.1-2.7-3.3-3.9c-12.8-12.8-33.7-12.8-46.5,0c-12.8,12.8-12.8,33.7,0,46.5C406.3,396.6,407.7,397.6,409,398.7L409,398.7z"
	/>
<path fill="#3F3938" d="M616.4,597.6l4.5,4.6c4.9-2.5,11-1.6,15.1,2.4l24.9,25c5.1,5.1,5.1,13.3,0,18.4l0,0
	c-4.9,5.1-13.2,5.1-18.3,0l-25-25c-4-4-4.8-10.1-2.4-15l-4.4-4.4c-15.7,14.3-39.9,13.8-55-1.3c-15.7-15.7-15.7-41,0-56.5
	c15.5-15.7,40.9-15.7,56.5,0C626.6,559.9,627.9,581.9,616.4,597.6L616.4,597.6z M565.4,601.6c-9.4-13-8.2-31,3.3-42.6
	c11.7-11.5,29.7-12.7,42.6-3.3c-1.1-1.4-2.1-2.7-3.4-3.9c-12.8-12.8-33.6-12.8-46.4,0c-12.8,12.8-12.8,33.6,0,46.4
	C562.7,599.5,564,600.6,565.4,601.6L565.4,601.6z M648.1,642.4l-25-25c-2.6-2.6-3.4-6.4-2.5-9.7c0.2-0.8,0.6-1.5,1.1-2.2
	c-0.7,0.4-1.3,0.8-1.9,1.4c-3.8,3.8-3.8,10,0,13.8l25,25c3.8,3.8,10,3.8,13.8,0c0.6-0.6,1.1-1.2,1.4-1.9
	C656.2,646,651.3,645.5,648.1,642.4L648.1,642.4z"/>
<path fill-rule="evenodd" clip-rule="evenodd" fill="#3F3938" d="M186.1,847.2c-4.9,5.1-13.2,5.2-18,0.2
	c-6.1-6.1-30.9-33.8-37.3-43.2c-15.3,8.6-34.9,6.4-47.9-6.6c-15.5-15.7-15.5-41,0-56.5c15.7-15.7,41-15.7,56.5,0
	c14,13.9,15.4,35.6,4.5,51.2c10,7.2,36.5,30.9,42.5,36.7C191.3,834,191.1,842.1,186.1,847.2L186.1,847.2z M117.4,738.9
	c6.2,1.8,11.5,5.2,15.4,9.7l-45,42.6c-4.9-4.8-8.2-11.2-9.2-18.1l36.5-34.6C116,738.6,116.7,738.8,117.4,738.9L117.4,738.9z
	 M137.4,755.7c1.5,3.3,2.5,6.9,2.8,10.7l-35.1,33.2c-1.3-0.1-2.5-0.4-3.8-0.7c-2.4-0.7-4.7-1.5-6.7-2.7L137.4,755.7z"/>
<path fill-rule="evenodd" clip-rule="evenodd" fill="#3F3938" d="M344.5,847.2c-5.1,5.1-13.2,5.2-18.1,0.2c-0.2-0.2-0.5-0.6-0.8-0.8
	c5.2-3.9,11.9-9.8,18.5-18.1l0.6,0.6C349.6,834,349.4,842.1,344.5,847.2L344.5,847.2z M238.8,741.2c15.8-15.8,41.5-15.8,57.2,0
	c13.8,13.8,15.7,35,5.5,50.6c1.4,1.1,3.3,2.5,5.4,4.2c-4.8,6-9.8,10.5-13.8,13.7c-1.8-2.2-3.2-4-4.2-5.5c-15.7,9.9-36.6,8-50.2-5.7
	C222.9,782.8,222.9,757.1,238.8,741.2L238.8,741.2z M267.3,770.2c8.4-8.4,20.3-11.1,30.9-8.2c-1.4-5.2-4.1-10-8.1-14.1
	c-12.5-12.4-32.6-12.4-45,0c-12.5,12.5-12.5,32.6,0,45c4,4,9,6.8,14.1,8.2C256.3,790.3,259,778.5,267.3,770.2L267.3,770.2z
	 M320,840.6c-6.1-6.7-14.8-16.5-21.7-24.6c4.5-3.5,9.8-8.4,15.1-14.7c8.1,6.8,18,15.5,24.7,21.7C331.5,831.5,324.9,837.2,320,840.6
	L320,840.6z"/>
<path fill-rule="evenodd" clip-rule="evenodd" fill="#3F3938" d="M502.8,847.2c-5.1,5.1-13.2,5.2-18.1,0.2
	c-5.9-6-29.3-32.2-36.6-42.4c-15.5,9-35.7,6.8-48.9-6.5c-15.9-15.8-15.9-41.5,0-57.4c15.8-15.8,41.5-15.8,57.4,0
	c14,14.1,15.5,35.8,4.7,51.6c10.6,7.8,35.9,30.5,41.8,36.3C507.8,834,507.8,842.1,502.8,847.2L502.8,847.2z M442.9,760.5
	c2-1.1,4.5-0.4,5.5,1.5c1.2,1.9,0.5,4.4-1.5,5.5l-23.8,13.8c-1.9,1.1-4.4,0.4-5.5-1.5c-1.1-2-0.4-4.5,1.5-5.5L442.9,760.5z
	 M423.9,751.8c1.9-1.1,4.4-0.4,5.5,1.5c1.1,2,0.5,4.5-1.5,5.5l-19.7,11.4c-2,1.1-4.5,0.5-5.5-1.5c-1.2-1.9-0.5-4.4,1.4-5.5
	L423.9,751.8z"/>
<path fill-rule="evenodd" clip-rule="evenodd" fill="#3F3938" d="M660.2,845.9c-5.1,5.1-13.2,5.2-18.1,0.2
	c-4.4-4.4-18.3-19.8-28.1-31.7c4.2-3.2,9.7-7.9,15.1-14.6c11.8,9.9,27,23.6,31.3,27.9C665.3,832.7,665.2,840.8,660.2,845.9
	L660.2,845.9z M555.4,742.5c15.9-15.8,41.6-15.8,57.4,0c13.4,13.4,15.4,33.8,6.2,49.3c1.2,0.8,2.5,1.9,3.9,3.1
	c-5.1,6.4-10,10.7-13.9,13.5c-0.9-1.2-1.9-2.4-2.6-3.3c-15.8,10.4-37.1,8.6-51-5.3C539.6,784.1,539.6,758.4,555.4,742.5L555.4,742.5
	z M599.6,757.3c-1.9-1.3-2.2-3.9-0.9-5.7c1.3-1.8,3.9-2.2,5.7-0.9c1.1,0.8,2.1,1.8,3.2,2.7l0,0c0.9,0.8,1.9,1.9,2.8,2.9
	c1.4,1.8,1.1,4.4-0.6,5.7c-1.8,1.4-4.4,1.2-5.8-0.5c-0.6-0.8-1.3-1.5-2-2.2l0,0C601.1,758.6,600.4,757.9,599.6,757.3L599.6,757.3z
	 M569.1,759.8c-1.6,1.5-4.1,1.5-5.8,0c-1.5-1.6-1.5-4.2,0-5.8c2.9-2.9,6.4-5.2,9.9-6.7c3.8-1.6,7.8-2.5,11.8-2.6
	c2.2,0,4.1,1.8,4.1,4s-1.8,4.1-4,4.1c-2.9,0.1-5.9,0.7-8.7,1.9C573.8,755.9,571.3,757.6,569.1,759.8L569.1,759.8z"/>
<path fill-rule="evenodd" clip-rule="evenodd" fill="#3F3938" d="M555.4,142.9c15.9-15.8,41.6-15.8,57.4,0
	c15.9,15.9,15.9,41.6,0,57.4c-15.8,15.9-41.5,15.9-57.4,0C539.6,184.4,539.6,158.8,555.4,142.9L555.4,142.9z M620.9,203.2
	c4.8-2.5,11-1.6,15.1,2.4l24.9,25c5.1,5.1,5.1,13.3,0,18.4l0,0c-4.9,4.9-13.2,4.9-18.3,0l-25-25c-4-4-4.8-10.1-2.4-15l-3.2-3.1
	c1.2-0.9,2.2-2,3.3-3.1c0.8-0.8,1.6-1.8,2.5-2.7L620.9,203.2z M647.5,235c2.4-2.5,6.4-2.5,8.8,0c2.5,2.5,2.5,6.5,0,8.8
	c-2.5,2.5-6.5,2.5-8.8,0C645.1,241.4,645.1,237.4,647.5,235L647.5,235z M589,190.9h-9.8v-14.4h-14.5v-9.9h14.5v-14.5h9.8v14.5h14.5
	v9.9H589V190.9z"/>
<path fill-rule="evenodd" clip-rule="evenodd" fill="#3F3938" d="M399.1,142.9c15.8-15.8,41.5-15.8,57.4,0
	c15.8,15.9,15.8,41.6,0,57.4c-15.9,15.9-41.6,15.9-57.4,0C383.2,184.4,383.2,158.8,399.1,142.9L399.1,142.9z M464.6,203.2
	c4.8-2.5,11-1.6,15,2.4l25,25c5.1,5.1,5.1,13.3,0,18.4l0,0c-5.1,4.9-13.3,4.9-18.4,0l-24.9-25c-4.1-4-4.9-10.1-2.5-15l-3.1-3.1
	c1.1-0.9,2.1-2,3.2-3.1c0.9-0.8,1.8-1.8,2.6-2.7L464.6,203.2z M491.1,235c2.5-2.5,6.5-2.5,8.8,0c2.5,2.5,2.5,6.5,0,8.8
	c-2.4,2.5-6.4,2.5-8.8,0C488.6,241.4,488.6,237.4,491.1,235L491.1,235z M413.3,161.7c0-1.8,0.6-3.7,1.8-5.5c1.2-1.9,2.9-3.4,5.2-4.7
	c2.2-1.2,4.8-1.8,7.9-1.8c2.8,0,5.3,0.5,7.4,1.5c2.1,1.1,3.8,2.4,4.9,4.2c1.2,1.8,1.8,3.7,1.8,5.8c0,1.6-0.4,3.1-0.9,4.4
	c-0.7,1.2-1.5,2.2-2.5,3.2c-0.8,0.8-2.5,2.4-4.8,4.5c-0.7,0.6-1.3,1.2-1.6,1.6c-0.4,0.4-0.7,0.8-0.8,1.2c-0.2,0.4-0.4,0.8-0.5,1.2
	c-0.1,0.4-0.2,1.1-0.5,2c-0.4,2-1.5,2.9-3.5,2.9c-0.9,0-1.8-0.4-2.5-0.9c-0.7-0.7-1.1-1.6-1.1-2.9c0-1.6,0.2-3.1,0.8-4.2
	c0.5-1.2,1.1-2.2,2-3.1c0.8-0.9,1.9-2,3.3-3.3c1.3-1.1,2.1-1.9,2.7-2.4c0.6-0.6,1.1-1.2,1.4-1.9s0.6-1.4,0.6-2.2
	c0-1.5-0.6-2.8-1.8-3.9c-1.2-1.1-2.6-1.5-4.5-1.5c-2.1,0-3.7,0.5-4.7,1.5c-0.9,1.1-1.9,2.7-2.5,4.8c-0.7,2.1-2,3.2-3.8,3.2
	c-1.1,0-2-0.4-2.7-1.2C413.6,163.5,413.3,162.7,413.3,161.7L413.3,161.7z M427.4,193.5c-1.2,0-2.2-0.4-3.1-1.2
	c-0.9-0.7-1.3-1.8-1.3-3.2c0-1.2,0.4-2.2,1.3-3.1c0.8-0.8,1.9-1.2,3.1-1.2c1.2,0,2.2,0.4,3.1,1.2c0.8,0.8,1.3,1.9,1.3,3.1
	c0,1.4-0.5,2.5-1.3,3.2C429.5,193.2,428.6,193.5,427.4,193.5L427.4,193.5z"/>
<path fill-rule="evenodd" clip-rule="evenodd" fill="#3F3938" d="M240.7,142.9c15.9-15.8,41.6-15.8,57.4,0
	c15.9,15.9,15.9,41.6,0,57.4c-15.8,15.9-41.5,15.9-57.4,0C224.9,184.4,224.9,158.8,240.7,142.9L240.7,142.9z M306.2,203.2
	c4.8-2.5,11-1.6,15.1,2.4l24.9,25c5.1,5.1,5.1,13.3,0,18.4l0,0c-4.9,4.9-13.2,4.9-18.3,0l-25-25c-4-4-4.8-10.1-2.4-15l-3.2-3.1
	c1.2-0.9,2.2-2,3.3-3.1c0.8-0.8,1.8-1.8,2.5-2.7L306.2,203.2z M332.8,235c2.5-2.5,6.4-2.5,8.8,0c2.5,2.5,2.5,6.5,0,8.8
	c-2.5,2.5-6.4,2.5-8.8,0C330.4,241.4,330.4,237.4,332.8,235L332.8,235z M278.6,176.2h-15.2c-2.2,0-4-0.5-5.2-1.3s-1.9-2-1.9-3.3
	c0-1.3,0.6-2.5,1.8-3.3c1.2-0.8,2.9-1.3,5.3-1.3h15.2c2.4,0,4.1,0.5,5.3,1.3c1.1,0.8,1.6,2,1.6,3.3c0,1.3-0.5,2.5-1.6,3.3
	C282.8,175.7,281,176.2,278.6,176.2L278.6,176.2z"/>
<path fill-rule="evenodd" clip-rule="evenodd" fill="#3F3938" d="M82.4,142.9c15.8-15.8,41.5-15.8,57.4,0
	c15.8,15.9,15.8,41.6,0,57.4c-15.9,15.9-41.6,15.9-57.4,0C66.5,184.4,66.5,158.8,82.4,142.9L82.4,142.9z M147.9,203.2
	c4.8-2.5,11-1.6,15,2.4l25,25c5.1,5.1,5.1,13.3,0,18.4l0,0c-5.1,4.9-13.3,4.9-18.3,0l-25-25c-4-4-4.8-10.1-2.5-15l-3.1-3.1
	c1.1-0.9,2.2-2,3.2-3.1c0.9-0.8,1.8-1.8,2.6-2.7L147.9,203.2z M174.4,235c2.5-2.5,6.5-2.5,9,0c2.5,2.5,2.5,6.5,0,8.8
	c-2.5,2.5-6.5,2.5-9,0C172.1,241.4,172.1,237.4,174.4,235L174.4,235z M112.8,146.8v2.8c1.9,0.2,3.5,0.6,4.8,1.2s2.5,1.5,3.5,2.6
	c0.7,0.9,1.3,1.9,1.8,2.8c0.5,0.9,0.7,1.8,0.7,2.6c0,0.8-0.4,1.6-1.1,2.2c-0.6,0.6-1.4,0.9-2.2,0.9c-1.8,0-2.8-0.9-3.4-2.7
	c-0.5-2.2-1.9-3.7-4.1-4.4v10.8c2.2,0.6,3.9,1.2,5.2,1.6c1.3,0.5,2.5,1.2,3.4,2.1c1.1,0.9,2,2.1,2.6,3.4c0.5,1.3,0.8,2.8,0.8,4.4
	c0,2-0.5,3.9-1.4,5.5c-0.9,1.8-2.4,3.2-4.1,4.4c-1.8,1.1-4,1.6-6.5,1.9v6.6c0,0.9-0.1,1.8-0.2,2.2c-0.2,0.5-0.7,0.7-1.4,0.7
	c-0.6,0-1.1-0.2-1.3-0.6c-0.2-0.5-0.4-1.1-0.4-1.8v-7.1c-2-0.2-3.8-0.7-5.3-1.5c-1.5-0.7-2.8-1.5-3.9-2.7c-0.9-1.1-1.8-2.2-2.2-3.4
	c-0.5-1.2-0.7-2.2-0.7-3.4c0-0.8,0.4-1.6,0.9-2.2c0.7-0.7,1.5-1.1,2.5-1.1c0.7,0,1.4,0.2,2,0.6c0.5,0.4,0.8,0.8,1.1,1.5
	c0.5,1.4,0.9,2.5,1.3,3.3c0.4,0.7,0.8,1.4,1.5,2c0.7,0.7,1.6,1.2,2.8,1.5v-12.2c-2.4-0.6-4.2-1.3-5.9-2.1c-1.5-0.8-2.8-1.9-3.8-3.4
	c-0.9-1.4-1.5-3.3-1.5-5.7c0-2.9,1.1-5.4,2.9-7.3c1.9-1.9,4.6-3.1,8.2-3.4v-2.7c0-1.4,0.6-2.2,1.6-2.2
	C112.2,144.6,112.8,145.3,112.8,146.8L112.8,146.8z M109.5,164.8v-10c-1.4,0.4-2.6,0.9-3.4,1.6s-1.3,1.9-1.3,3.3
	c0,1.4,0.5,2.4,1.2,3.1C106.8,163.5,108,164.2,109.5,164.8L109.5,164.8z M112.8,172.5V184c1.8-0.4,3.2-1.1,4.1-2.1
	c0.9-1.1,1.4-2.4,1.4-3.8c0-1.4-0.5-2.6-1.4-3.4C116,173.8,114.7,173.1,112.8,172.5L112.8,172.5z"/>
<path fill-rule="evenodd" clip-rule="evenodd" fill="#3F3938" d="M319.3,405l25,25c5.1,5.1,5.1,13.3,0,18.4l0,0
	c-5.1,4.9-13.3,4.9-18.4,0l-25-25c-4.7-4.8-4.7-10.5-2.4-15l-3.1-3.1c2-1.8,4-3.7,5.8-5.8c0.7,0.8,2,1.9,3.2,2.9
	C308.9,400.2,314.6,400.3,319.3,405L319.3,405z M241.2,342.9c15.5-15.5,40.9-15.5,56.5,0c15.5,15.7,15.5,41,0,56.5
	c-15.7,15.7-41,15.7-56.5,0C225.5,383.8,225.5,358.5,241.2,342.9L241.2,342.9z M275.7,340.9c6.2,1.6,11.5,5.1,15.4,9.7L246.3,393
	c-5.1-4.7-8.2-11.2-9.3-18l36.6-34.7C274.3,340.5,275,340.6,275.7,340.9L275.7,340.9z M295.7,357.5c1.5,3.3,2.6,6.9,2.8,10.7
	l-35,33.2c-1.3-0.1-2.6-0.4-3.9-0.7c-2.4-0.7-4.6-1.5-6.7-2.7L295.7,357.5z M330.8,434.5c2.5-2.5,6.5-2.5,8.8,0
	c2.5,2.5,2.5,6.5,0,8.8c-2.4,2.5-6.4,2.5-8.8,0C328.4,441,328.4,437,330.8,434.5L330.8,434.5z"/>
<path fill-rule="evenodd" clip-rule="evenodd" fill="#3F3938" d="M82.8,342.9c15.7-15.5,41-15.5,56.5,0
	c15.1,15.1,15.7,39.1,1.6,54.8l4.9,5.1c4.9-2.5,11-1.6,15.1,2.4l24.9,25c5.1,5.1,5.1,13.3,0,18.4l0,0c-4.9,4.9-13.2,4.9-18.3,0
	l-25-25c-4-4-4.8-10.1-2.4-15l-5.3-5.3c-15.7,11.8-37.9,10.5-52.2-3.8C67.2,383.8,67.2,358.5,82.8,342.9L82.8,342.9z M97.5,357.5
	c-1.6,1.6-4.2,1.6-5.8,0c-1.5-1.5-1.5-4.1,0-5.7c5.1-5.2,11.8-7.8,18.5-8c6.7-0.2,13.5,2,19,6.7c1.6,1.5,1.8,4.1,0.4,5.8
	c-1.5,1.6-4,1.9-5.8,0.4c-3.8-3.3-8.6-4.9-13.3-4.7C105.8,352,101,353.9,97.5,357.5L97.5,357.5z"/>
<path fill-rule="evenodd" clip-rule="evenodd" fill="#3F3938" d="M399.5,545.9c15.7-15.7,40.9-15.7,56.5,0
	c14.4,14.4,15.5,37,3.3,52.6l3.5,3.5c4.8-2.5,11-1.6,15,2.5l2.1,2.1l-18.3,18.3l-2.1-2.1c-4.1-4-4.8-10.1-2.5-15l-3.3-3.4
	c-15.8,13.5-39.5,12.8-54.3-2C383.9,586.8,383.9,561.5,399.5,545.9L399.5,545.9z M486.9,613.5l6.8,6.9l-18.3,18.3l-6.9-6.8
	L486.9,613.5z M500.7,627.3l2.1,2.1c5.1,5.1,5.1,13.3,0,18.4l0,0c-5.1,5.1-13.3,5.1-18.3,0l-2.1-2.1L500.7,627.3z M414.1,560.5
	c-1.5,1.6-4.1,1.6-5.7,0c-1.6-1.5-1.6-4.1,0-5.8c5.1-5.1,11.7-7.8,18.4-8c6.8-0.1,13.7,2.1,19,6.8c1.8,1.5,1.9,4,0.5,5.8
	c-1.5,1.6-4.1,1.8-5.8,0.4c-3.8-3.4-8.6-4.9-13.3-4.8C422.5,555,417.7,556.9,414.1,560.5L414.1,560.5z"/>
<path fill-rule="evenodd" clip-rule="evenodd" fill="#3F3938" d="M238.8,544c15.8-15.8,41.5-15.8,57.2,0c15,15,15.8,38.4,2.8,54.4
	l5.7,5.7c4.8-2.5,11-1.6,15,2.4l25,25c4.9,5.1,4.9,13.3,0,18.4l0,0c-5.1,4.9-13.3,4.9-18.4,0l-0.2-0.4l11.9-11.8l-4.9-4.9
	l-11.9,11.8l-4.8-4.7l11.9-11.9l-4.9-4.9l-11.9,11.9l-4.7-4.8l11.8-11.9l-4.9-4.9l-11.8,11.9l-0.4-0.2c-4-4.1-4.8-10.1-2.4-15
	l-5.7-5.7c-15.9,13-39.5,12.1-54.3-2.8C222.9,585.6,222.9,559.9,238.8,544L238.8,544z M282.9,558.9c-1.8-1.3-2.2-3.9-0.9-5.7
	c1.4-1.8,3.9-2.2,5.7-0.9c1.2,0.8,2.2,1.8,3.2,2.7l0,0c1.1,0.8,2,1.9,2.8,2.9c1.4,1.8,1.2,4.4-0.6,5.8c-1.8,1.4-4.2,1.1-5.7-0.6
	c-0.7-0.8-1.4-1.5-2.1-2.2l0,0C284.5,560.2,283.7,559.4,282.9,558.9L282.9,558.9z M252.4,561.3c-1.5,1.5-4.1,1.5-5.8,0
	c-1.5-1.6-1.5-4.2,0-5.8c2.9-2.9,6.4-5.2,10-6.7c3.7-1.6,7.7-2.5,11.7-2.6c2.2,0,4.1,1.8,4.1,4c0.1,2.2-1.6,4.1-3.9,4.1
	c-2.9,0.1-6,0.7-8.7,1.9C257.1,557.4,254.6,559.1,252.4,561.3L252.4,561.3z"/>
<path fill-rule="evenodd" clip-rule="evenodd" fill="#3F3938" d="M82.8,545.6c15.7-15.7,41-15.7,56.5,0c14.1,14,15.5,36,4.1,51.7
	l2.4,2.4c2.5-1.4,5.3-2.1,8-2.1c4,0,8.1,1.5,11.2,4.6l0,0l22.7,22.7c3.1,3.1,4.6,7.2,4.6,11.2c0,4.1-1.5,8.1-4.6,11.3l0,0
	c-3.2,3.1-7.2,4.6-11.2,4.6l0,0c-4.1,0-8.1-1.5-11.2-4.6l-22.7-22.7c-3.2-3.2-4.7-7.2-4.7-11.3c0-2.7,0.7-5.4,2.1-7.9l-2-2.1
	c-15.7,14.4-40,13.9-55.2-1.2C67.2,586.4,67.2,561.1,82.8,545.6L82.8,545.6z M148.5,607.6c0,0.1-0.1,0.1-0.1,0.2
	c-0.1,0.1-0.2,0.1-0.2,0.2c-1.4,1.4-2.1,3.3-2.1,5.2c0,2,0.8,4,2.2,5.5l22.8,22.7c1.4,1.5,3.4,2.2,5.4,2.2l0,0c2,0,4-0.7,5.4-2.2
	h0.1c1.4-1.5,2.1-3.5,2.1-5.5c0-1.9-0.7-3.9-2.2-5.4l-22.7-22.7l0,0c-1.4-1.5-3.4-2.2-5.4-2.2C151.9,605.6,150,606.3,148.5,607.6
	L148.5,607.6z M97.5,560.2c-1.6,1.5-4.2,1.5-5.8,0c-1.5-1.5-1.5-4.1,0-5.8c5.1-5.1,11.8-7.8,18.5-8c6.7-0.2,13.5,2.1,19,6.8
	c1.6,1.4,1.8,4,0.4,5.8c-1.5,1.6-4,1.8-5.8,0.4c-3.8-3.4-8.6-4.9-13.3-4.8S101,556.5,97.5,560.2L97.5,560.2z"/>
<path fill-rule="evenodd" clip-rule="evenodd" fill="#3F3938" d="M1285.8,203.2c4.8-2.4,11-1.6,15,2.5l25,25
	c5.1,4.9,5.1,13.2,0,18.3l0,0c-5.1,5.1-13.3,5.1-18.4,0l-24.9-25c-4.1-4-4.8-10.1-2.5-15l-5.5-5.5c-7.4,5.9-16.5,9-25.6,9
	c-10.4,0-20.8-4-28.7-11.9c-7.9-8-11.9-18.4-11.9-28.9c0-10.4,4-20.7,11.9-28.7c7.9-7.9,18.4-11.9,28.7-11.9
	c10.5,0,20.8,4,28.7,11.9c8,8,12,18.4,12,28.7c0,9.3-3.2,18.5-9.4,26L1285.8,203.2z M1253.7,191h-9.8v-14.4h-14.4v-9.9h14.4v-14.5
	h9.8v14.5h14.6v9.9h-14.6V191z M1271.5,195c0.1,0,0.1-0.1,0.2-0.1c0-0.1,0.1-0.2,0.2-0.2c6.4-6.4,9.5-14.7,9.5-23.1
	c0-8.2-3.2-16.6-9.5-23c-6.4-6.4-14.7-9.5-23.1-9.5s-16.6,3.2-23,9.5c-6.4,6.4-9.5,14.7-9.5,23c0,8.4,3.2,16.7,9.5,23.1
	c6.4,6.4,14.6,9.5,23,9.5C1257,204.2,1265.3,201.2,1271.5,195L1271.5,195z M1312.3,235.1c2.5-2.5,6.5-2.5,9,0c2.4,2.4,2.4,6.4,0,8.8
	c-2.5,2.5-6.5,2.5-9,0C1309.8,241.4,1309.8,237.4,1312.3,235.1L1312.3,235.1z"/>
<path fill-rule="evenodd" clip-rule="evenodd" fill="#3F3938" d="M1285.8,403c4.8-2.5,11-1.6,15,2.4l25,25c5.1,5.1,5.1,13.3,0,18.4
	l0,0c-5.1,4.9-13.3,4.9-18.4,0l-24.9-25c-4.1-4-4.8-10.1-2.5-15l-5.5-5.7c-7.4,6-16.5,9-25.6,9c-10.4,0-20.8-3.9-28.7-11.9
	c-7.9-7.9-11.9-18.4-11.9-28.7c0-10.4,4-20.8,11.9-28.7c7.9-8,18.4-11.9,28.7-11.9c10.5,0,20.8,3.9,28.7,11.9c8,7.9,12,18.4,12,28.7
	c0,9.3-3.2,18.5-9.4,26L1285.8,403z M1235.4,357.8c-1.6,1.6-4.2,1.6-5.8,0c-1.6-1.5-1.6-4.1,0-5.7c5.1-5.2,11.8-7.8,18.5-8
	c6.7-0.2,13.5,2,19,6.7c1.6,1.5,1.8,4.1,0.4,5.8c-1.5,1.6-4.1,1.9-5.8,0.4c-3.8-3.3-8.6-4.9-13.3-4.7
	C1243.6,352.4,1238.9,354.3,1235.4,357.8L1235.4,357.8z M1271.5,394.9l0.2-0.2c0,0,0.1-0.1,0.2-0.2c6.4-6.2,9.5-14.6,9.5-23
	c0-8.4-3.2-16.6-9.5-23c-6.4-6.4-14.7-9.5-23.1-9.5s-16.6,3.2-23,9.5c-6.4,6.4-9.5,14.6-9.5,23c0,8.4,3.2,16.7,9.5,23.1
	c6.4,6.2,14.6,9.4,23,9.4C1257,404,1265.3,401,1271.5,394.9L1271.5,394.9z M1312.7,434.7c2.4-2.5,6.4-2.5,8.8,0c2.5,2.5,2.5,6.5,0,9
	c-2.5,2.4-6.5,2.4-8.8,0C1310.3,441.2,1310.3,437.2,1312.7,434.7L1312.7,434.7z"/>
<path fill="#3F3938" d="M1061.9,342.7c7.9-8,18.3-11.9,28.7-11.9c10.4,0,20.8,3.9,28.7,11.9c8,7.9,11.9,18.4,11.9,28.7
	c0,9.3-3.1,18.5-9.3,26l5.5,5.5c4.8-2.5,11-1.6,15,2.4l25,25c4.9,5.1,4.9,13.3,0,18.4l0,0c-5.1,4.9-13.3,4.9-18.4,0l-25-25
	c-4-4-4.8-10.1-2.4-15l-5.7-5.7c-7.4,6-16.4,9-25.4,9c-10.5,0-20.8-3.9-28.7-11.9c-8-7.9-12-18.4-12-28.7
	C1049.9,361.1,1053.9,350.6,1061.9,342.7L1061.9,342.7z M1074.7,393.4c-7.8-10.6-6.8-25.6,2.7-35.1c9.5-9.5,24.5-10.4,35.1-2.7
	c-0.8-1.2-1.8-2.2-2.8-3.2c-10.5-10.6-27.7-10.6-38.2,0c-10.6,10.5-10.6,27.7,0,38.2C1072.5,391.6,1073.5,392.6,1074.7,393.4
	L1074.7,393.4z M1113.2,394.9l0.1-0.2c0.1,0,0.2-0.1,0.2-0.2c6.4-6.2,9.5-14.6,9.5-23c0-8.4-3.2-16.6-9.5-23
	c-6.4-6.4-14.6-9.5-23-9.5c-8.4,0-16.7,3.2-23.1,9.5s-9.5,14.6-9.5,23c0,8.4,3.2,16.7,9.5,23.1c6.4,6.2,14.7,9.4,23.1,9.4
	C1098.7,404,1106.9,401,1113.2,394.9L1113.2,394.9z"/>
<path fill-rule="evenodd" clip-rule="evenodd" fill="#3F3938" d="M958.8,403c4.8-2.5,11-1.6,15,2.4l25,25c5.1,5.1,5.1,13.3,0,18.4
	l0,0c-5.1,4.9-13.3,4.9-18.3,0l-25-25c-4.1-4-4.8-10.1-2.5-15l-5.5-5.7c-7.4,6-16.5,9-25.6,9c-10.4,0-20.7-3.9-28.7-11.9
	c-7.9-7.9-11.9-18.4-11.9-28.7c0-10.4,4-20.8,11.9-28.7c8-8,18.4-11.9,28.7-11.9c10.5,0,20.8,3.9,28.7,11.9c8,7.9,12,18.4,12,28.7
	c0,9.3-3.2,18.5-9.4,26L958.8,403z M929.3,345c5.4,1.5,10,4.5,13.4,8.5l-39.2,37.1c-4.4-4.1-7.2-9.8-8-15.8l31.9-30.3
	C928,344.6,928.7,344.9,929.3,345L929.3,345z M946.7,359.6c1.4,2.8,2.2,6,2.5,9.3l-30.6,29c-1.1-0.1-2.1-0.4-3.3-0.6
	c-2.1-0.6-4-1.4-5.9-2.4L946.7,359.6z M944.6,394.9l0.2-0.2c0,0,0.1-0.1,0.2-0.2c6.4-6.2,9.5-14.6,9.5-23c0-8.4-3.2-16.6-9.5-23
	c-6.4-6.4-14.7-9.5-23.1-9.5c-8.2,0-16.6,3.2-23,9.5s-9.5,14.6-9.5,23c0,8.4,3.2,16.7,9.5,23.1c6.4,6.2,14.7,9.4,23,9.4
	S938.3,401,944.6,394.9L944.6,394.9z M985.8,434.7c2.4-2.5,6.4-2.5,8.8,0c2.5,2.5,2.5,6.5,0,9c-2.5,2.4-6.5,2.4-8.8,0
	C983.3,441.2,983.3,437.2,985.8,434.7L985.8,434.7z"/>
<path fill="#3F3938" d="M1113.3,596.1c0-0.1,0.1-0.2,0.1-0.2c0.1-0.1,0.1-0.1,0.2-0.2c6.2-6.4,9.3-14.6,9.3-22.8s-3.2-16.6-9.5-23
	c-6.4-6.4-14.6-9.5-23-9.5c-8.4,0-16.7,3.2-23.1,9.5c-6.2,6.4-9.4,14.7-9.4,23c0,8.4,3.2,16.7,9.4,23.1c6.4,6.4,14.7,9.5,23.1,9.5
	C1098.7,605.4,1107,602.2,1113.3,596.1L1113.3,596.1z M1076.8,559.2c-1.5,1.5-4.1,1.5-5.8,0c-1.5-1.6-1.5-4.2,0-5.8
	c5.2-5.1,11.8-7.8,18.5-8c6.8-0.2,13.5,2,19,6.8c1.6,1.4,1.9,4,0.4,5.7c-1.4,1.8-4,1.9-5.7,0.4c-3.8-3.3-8.6-4.8-13.4-4.7
	C1085.2,553.7,1080.5,555.6,1076.8,559.2L1076.8,559.2z M1121.9,598.6l5.7,5.5c4.8-2.4,10.8-1.5,15,2.5l2.1,2.1l-18.4,18.3l-2.1-2.1
	c-4-4-4.8-10.1-2.4-15l-5.5-5.5c-7.5,6.1-16.7,9.2-25.8,9.2c-10.4,0-20.8-4-28.7-11.9c-8-8-11.9-18.4-11.9-28.9
	c0-10.4,3.9-20.7,11.9-28.7c7.9-7.9,18.4-11.9,28.7-11.9c10.4,0,20.8,4,28.7,11.9c8,8,11.9,18.4,11.9,28.7
	C1131.1,581.9,1128.1,591.1,1121.9,598.6L1121.9,598.6z M1151.5,615.5l6.9,6.9l-18.4,18.3l-6.8-6.8L1151.5,615.5z M1165.4,629.4
	l2.1,2.1c4.9,4.9,4.9,13.2,0,18.3l0,0c-5.1,5.1-13.3,5.1-18.4,0l-2.1-2.1L1165.4,629.4z"/>
<path fill="#3F3938" d="M1271.5,596.1c0.1,0,0.1-0.1,0.2-0.1c0-0.1,0.1-0.2,0.2-0.2l0,0c6.4-6.4,9.5-14.7,9.5-23.1
	c0-8.2-3.2-16.6-9.5-23c-6.4-6.4-14.7-9.5-23.1-9.5s-16.6,3.2-23,9.5c-6.4,6.4-9.5,14.7-9.5,23c0,8.4,3.2,16.7,9.5,23.1
	c6.4,6.4,14.6,9.5,23,9.5C1257,605.3,1265.3,602.2,1271.5,596.1L1271.5,596.1z M1233,594.5c-7.7-10.6-6.8-25.4,2.7-35
	c9.5-9.5,24.5-10.5,35.1-2.8c-0.8-1.1-1.8-2.1-2.7-3.2c-10.6-10.6-27.8-10.6-38.3,0c-10.6,10.6-10.6,27.7,0,38.3
	C1230.8,592.8,1231.9,593.7,1233,594.5L1233,594.5z M1280.2,598.7l5.5,5.5c4.8-2.4,11-1.6,15,2.5l25,25c5.1,4.9,5.1,13.2,0,18.3l0,0
	c-5.1,5.1-13.3,5.1-18.4,0l-24.9-25c-4.1-4-4.8-10.1-2.5-15l-5.5-5.5c-7.4,5.9-16.5,9-25.6,9c-10.4,0-20.8-4-28.7-11.9
	c-7.9-8-11.9-18.4-11.9-28.9c0-10.4,4-20.7,11.9-28.7c7.9-7.9,18.4-11.9,28.7-11.9c10.5,0,20.8,4,28.7,11.9c8,8,12,18.4,12,28.7
	C1289.7,581.9,1286.5,591.1,1280.2,598.7L1280.2,598.7z M1285.5,615.5L1285.5,615.5L1285.5,615.5v-0.1v-0.1l0,0l0,0l-0.1-0.1l0,0
	V615l0,0v-0.1l0,0v-0.1l0,0l-0.1-0.1l0,0v-0.1l0,0v-0.1v-0.1l0,0l-0.1-0.2l0,0V614v-0.1v-0.1l0,0l0,0v-0.1l0,0v-0.2l0,0v-0.1l0,0
	V613l0,0l-0.1-0.1l0,0v-0.1l0,0v-0.1v-0.1l0,0v-0.1l0,0v-0.1l0,0v-0.1l0,0v-0.1h0.1V612l0,0v-0.1l0,0v-0.1l0,0v-0.1l0,0v-0.1l0,0
	v-0.1l0,0v-0.1l0,0v-0.1l0,0V611l0,0l0,0l0.1-0.1v-0.1l0,0v-0.1l0,0l0,0v-0.1l0,0v-0.1v-0.1h0.1v-0.1l0,0l0,0v-0.1l0,0V610v-0.1h0.1
	l0,0v-0.1c0.2-0.8,0.6-1.5,0.9-2.2c-0.6,0.4-1.2,0.8-1.8,1.4l0,0l-0.1,0.1l0,0l-0.1,0.1l0,0l0,0v0.1h-0.1l0,0l-0.1,0.2l0,0h-0.1v0.1
	h-0.1l0,0v0.1h-0.1v0.1l0,0l0,0l-0.1,0.1l0,0l0,0v0.1h-0.1v0.1l0,0h-0.1l-0.1,0.2l0,0v0.1l0,0l-0.1,0.1l0,0l0,0l0,0l-0.1,0.1l0,0
	l-0.1,0.2l0,0l0,0v0.1l-0.1,0.1l0,0l0,0v0.1l0,0l-0.1,0.1l0,0l0,0l-0.1,0.2l0,0l0,0v0.1l0,0l0,0l-0.1,0.1l0,0v0.1l0,0l0,0v0.1h-0.1
	v0.1l0,0l0,0v0.1c-1.3,3.4-0.6,7.4,2.2,10.2l25,25c3.8,3.8,10,3.8,13.8,0c0.5-0.6,0.9-1.2,1.4-1.9c-3.8,2.4-8.7,1.9-12-1.4l-24.9-25
	C1286.8,618.3,1286,616.9,1285.5,615.5L1285.5,615.5z"/>
<path fill="#3F3938" d="M777.4,595.4c0,0,0.1-0.1,0.2-0.1c0-0.1,0.1-0.2,0.1-0.2c6.2-6.4,9.4-14.6,9.4-22.8c0-8.4-3.2-16.6-9.5-23
	c-6.4-6.4-14.7-9.5-23.1-9.5c-8.2,0-16.6,3.2-23,9.5s-9.5,14.6-9.5,23c0,8.4,3.2,16.7,9.5,23.1c6.4,6.4,14.7,9.5,23,9.5
	S771.1,601.6,777.4,595.4L777.4,595.4z M741,558.6c-1.6,1.5-4.2,1.5-5.8,0c-1.6-1.6-1.6-4.2,0-5.8c5.1-5.2,11.8-7.8,18.5-8
	c6.7-0.2,13.5,2,18.8,6.7c1.8,1.5,1.9,4.1,0.5,5.8c-1.5,1.6-4.1,1.9-5.8,0.4c-3.8-3.3-8.6-4.9-13.3-4.7
	C749.3,553.1,744.6,555,741,558.6L741,558.6z M786.2,598l3.9,3.9c2.5-1.4,5.3-2.1,8-2.1c4,0,8.1,1.5,11.2,4.7l0,0l22.7,22.7
	c3.1,3.1,4.6,7.1,4.6,11.2c0,4-1.5,8.1-4.6,11.2v0.1c-3.2,2.9-7.2,4.5-11.2,4.5l0,0c-4.1,0-8.1-1.5-11.2-4.6l-22.7-22.7
	c-3.2-3.1-4.7-7.2-4.7-11.2c0-2.8,0.7-5.5,2.1-8l-3.9-3.9c-7.5,6.1-16.6,9.2-25.8,9.2c-10.4,0-20.8-4-28.7-12
	C718,593,714,582.7,714,572.2c0-10.4,4-20.8,11.9-28.7c7.9-7.9,18.4-11.9,28.7-11.9c10.5,0,20.8,4,28.7,11.9c8,7.9,12,18.4,12,28.7
	C795.3,581.4,792.3,590.4,786.2,598L786.2,598z M792.8,610l-0.1,0.1c-0.1,0.1-0.2,0.2-0.2,0.2c-1.4,1.5-2.1,3.4-2.1,5.3
	c0,2,0.8,4,2.2,5.4l22.8,22.7c1.4,1.5,3.4,2.2,5.4,2.2v0.1c2,0,4-0.8,5.4-2.4h0.1c1.4-1.5,2.1-3.4,2.1-5.4c0-2-0.7-4-2.2-5.5
	l-22.7-22.7l0,0c-1.4-1.4-3.4-2.2-5.4-2.2C796.2,607.9,794.3,608.6,792.8,610L792.8,610z"/>
<path fill-rule="evenodd" clip-rule="evenodd" fill="#3F3938" d="M832.2,847.1c-5.1,5.1-13.2,5.2-18.1,0.2c-6-6-30.2-33.1-37-42.9
	c-6.7,4.2-14.3,6.4-21.9,6.4c-10.4,0-20.8-4-28.7-11.9c-7.9-8-11.9-18.4-11.9-28.7c0-10.5,4-20.8,11.9-28.9
	c7.9-7.9,18.4-11.9,28.7-11.9c10.5,0,20.8,4,28.7,11.9c8,8,12,18.4,12,28.9c0,7.5-2.1,15.2-6.4,21.8c9.8,6.8,36.7,31,42.9,37
	C837.3,833.9,837.3,842.1,832.2,847.1L832.2,847.1z M755.4,742.7c5.5,0,10.8,1.8,15.2,4.7l-28.3,46.1c-5.3-2.9-9.5-7.5-11.9-13.2
	l23-37.5C754.1,742.8,754.7,742.7,755.4,742.7L755.4,742.7z M776,752.3c2,2.5,3.7,5.3,4.8,8.4l-22,36c-1.2,0.1-2.4,0.2-3.4,0.2
	c-2.2,0-4.2-0.4-6.2-0.8L776,752.3z M755.2,737.5c-8.2,0-16.6,3.2-23,9.5c-6.4,6.4-9.5,14.7-9.5,23.1c0,8.2,3.2,16.6,9.5,23
	c6.4,6.4,14.7,9.5,23,9.5c8.4,0,16.7-3.2,23.1-9.5c6.4-6.4,9.5-14.7,9.5-23c0-8.4-3.2-16.7-9.5-23.1
	C771.9,740.7,763.5,737.5,755.2,737.5L755.2,737.5z"/>
<path fill-rule="evenodd" clip-rule="evenodd" fill="#3F3938" d="M998.9,847.1c-5.1,5.1-13.2,5.2-18.1,0.2c-0.2-0.2-0.5-0.5-0.8-0.8
	c5.3-3.9,11.9-9.7,18.5-18.1l0.6,0.6C1003.9,833.9,1003.8,842.1,998.9,847.1L998.9,847.1z M921.7,769.9c7.1-7.1,17.2-9.4,26.3-6.9
	c-1.2-4.4-3.5-8.6-6.9-12c-10.6-10.6-27.8-10.6-38.3,0c-10.6,10.6-10.6,27.7,0,38.3c3.4,3.5,7.5,5.8,12,6.9
	C912.3,787.2,914.7,777.1,921.7,769.9L921.7,769.9z M893.1,741.3c7.9-7.9,18.4-11.9,28.7-11.9c10.4,0,20.8,4,28.7,11.9
	c8,8,11.9,18.4,11.9,28.9c0,7.5-2.1,15.2-6.2,21.8c1.4,1.1,3.2,2.4,5.3,4c-4.9,6.1-9.9,10.5-13.9,13.7c-1.6-2-2.9-3.8-4-5.2
	c-6.6,4.2-14.1,6.4-21.8,6.4c-10.4,0-20.8-4-28.7-11.9c-8-8-11.9-18.4-11.9-28.7C881.2,759.7,885.1,749.3,893.1,741.3L893.1,741.3z
	 M921.8,737.5c-8.4,0-16.6,3.2-23,9.5c-6.4,6.4-9.5,14.7-9.5,23.1c0,8.2,3.2,16.6,9.5,23c6.4,6.4,14.6,9.5,23,9.5
	c8.4,0,16.7-3.2,23-9.5c6.4-6.4,9.5-14.7,9.5-23c0-8.4-3.2-16.7-9.5-23.1C938.6,740.7,930.2,737.5,921.8,737.5L921.8,737.5z
	 M974.4,840.6c-6.1-6.7-14.8-16.6-21.7-24.7c4.5-3.5,9.8-8.4,15.1-14.7c8.1,6.8,18,15.5,24.7,21.7
	C985.9,831.4,979.3,837.1,974.4,840.6L974.4,840.6z"/>
<path fill-rule="evenodd" clip-rule="evenodd" fill="#3F3938" d="M1167.4,847.1c-4.9,5.1-13.2,5.2-18,0.2
	c-6.1-6-30.3-33.1-37.1-42.9c-6.6,4.2-14.3,6.4-21.8,6.4c-10.5,0-20.8-4-28.9-11.9c-7.9-8-11.9-18.4-11.9-28.7
	c0-10.5,4-20.8,11.9-28.9c8-7.9,18.4-11.9,28.9-11.9c10.4,0,20.7,4,28.7,11.9c7.9,8,11.9,18.4,11.9,28.9c0,7.5-2.1,15.2-6.4,21.8
	c9.8,6.8,36.9,31,42.9,37C1172.6,833.9,1172.5,842.1,1167.4,847.1L1167.4,847.1z M1107.7,760.5c1.9-1.2,4.4-0.5,5.4,1.4
	c1.2,2,0.5,4.5-1.4,5.5l-23.8,13.8c-2,1.1-4.5,0.5-5.5-1.5c-1.2-1.9-0.5-4.4,1.4-5.5L1107.7,760.5z M1088.5,751.8
	c2-1.2,4.5-0.5,5.5,1.4c1.2,2,0.5,4.5-1.4,5.5l-19.8,11.4c-2,1.2-4.5,0.5-5.5-1.5c-1.1-1.9-0.5-4.4,1.5-5.4L1088.5,751.8z
	 M1090.5,737.5c-8.4,0-16.7,3.2-23.1,9.5c-6.4,6.4-9.5,14.7-9.5,23.1c0,8.2,3.2,16.6,9.5,23c6.4,6.4,14.7,9.5,23.1,9.5
	c8.2,0,16.6-3.2,23-9.5c6.4-6.4,9.5-14.7,9.5-23c0-8.4-3.2-16.7-9.5-23.1C1107.1,740.7,1098.7,737.5,1090.5,737.5L1090.5,737.5z
	 M1117.7,800.8l-1.6,1.6c1.5,2,3.5,4.5,4.6,5.8c4,4.9,8.1,9.8,12.2,14.5c3.9,4.5,7.8,8.8,11.7,13.2c2.6,2.7,5.2,5.7,7.9,8.4
	c3.3,3.3,8.6,3.1,11.9-0.2C1151.1,839.1,1126.1,810.6,1117.7,800.8L1117.7,800.8z"/>
<path fill-rule="evenodd" clip-rule="evenodd" fill="#3F3938" d="M1325.7,847.2c-5.1,5.1-13.2,5.2-18.1,0.2
	c-4.4-4.4-18.3-19.8-28.1-31.6c4.4-3.2,9.7-8,15.1-14.7c11.8,9.9,27.1,23.7,31.3,27.9C1330.8,834,1330.6,842.1,1325.7,847.2
	L1325.7,847.2z M1259.3,755.7c-1.8-1.4-2.1-3.9-0.8-5.7c1.3-1.9,3.9-2.2,5.7-0.9c0.6,0.5,1.1,0.8,1.5,1.3c0.6,0.5,1.2,0.9,1.5,1.3
	c0.6,0.6,1.2,1.3,1.8,2c1.4,1.8,1.2,4.2-0.6,5.7c-1.8,1.4-4.2,1.2-5.7-0.6c-0.4-0.4-0.7-0.8-1.3-1.3c-0.4-0.4-0.7-0.7-0.9-0.9
	C1260,756.1,1259.6,755.9,1259.3,755.7L1259.3,755.7z M1236.3,757.4c-1.5,1.6-4.1,1.6-5.7,0c-1.6-1.5-1.6-4.1,0-5.8
	c2.4-2.4,5.1-4.1,8.1-5.4c2.9-1.3,6.2-2,9.5-2.1c2.2,0,4,1.8,4.1,4c0,2.2-1.8,4.1-4,4.1c-2.2,0-4.5,0.6-6.6,1.4
	C1240,754.5,1238.1,755.8,1236.3,757.4L1236.3,757.4z M1220.2,741.2c7.9-7.9,18.4-11.9,28.7-11.9c10.4,0,20.8,4,28.7,11.9
	c8,8,11.9,18.4,11.9,28.9c0,7.7-2.1,15.3-6.5,22c1.4,1.1,3.3,2.5,5.3,4.1c-4.9,6.4-10,10.7-13.9,13.5c-1.6-2-2.9-3.8-4-5.2
	c-6.6,4.1-14,6.1-21.6,6.1c-10.4,0-20.8-4-28.7-11.9c-8-8-11.9-18.4-11.9-28.7C1208.3,759.6,1212.2,749.2,1220.2,741.2L1220.2,741.2
	z M1248.9,737.4c-8.4,0-16.7,3.2-23,9.5c-6.4,6.4-9.5,14.7-9.5,23.1c0,8.2,3.2,16.6,9.5,23c6.2,6.4,14.6,9.5,23,9.5s16.6-3.2,23-9.5
	c6.4-6.4,9.5-14.7,9.5-23c0-8.4-3.2-16.7-9.5-23.1C1265.5,740.6,1257.3,737.4,1248.9,737.4L1248.9,737.4z"/>
<path fill="#3F3938" d="M726.6,342.7c8-8,18.4-11.9,28.7-11.9l0,0c10.5,0,20.8,4,28.9,11.9c7.9,7.9,11.9,18.4,11.9,28.7
	c0,9.3-3.2,18.5-9.4,26l5.5,5.5c4.8-2.5,11-1.6,15,2.4l25,25c5.1,5.1,5.1,13.3,0,18.4l0,0c-5.1,4.9-13.2,4.9-18.3,0l-25-25
	c-4-4-4.8-10.1-2.5-15l-5.5-5.7c-7.4,6-16.5,9-25.6,9c-10.4,0-20.7-3.9-28.7-11.9c-7.9-7.9-11.9-18.4-11.9-28.7
	C714.7,361.1,718.7,350.6,726.6,342.7L726.6,342.7z M741.9,359.6c-1.5,1.5-4.1,1.5-5.8,0c-1.5-1.6-1.5-4.2,0-5.8
	c5.2-5.2,11.8-7.8,18.5-8c6.7-0.2,13.5,2,19,6.8c1.6,1.4,1.9,4,0.4,5.7c-1.4,1.6-4,1.9-5.8,0.4c-3.8-3.3-8.6-4.9-13.3-4.7
	C750.1,354,745.5,355.9,741.9,359.6L741.9,359.6z M778,394.9l0.1-0.2c0.1,0,0.1-0.1,0.2-0.1c6.4-6.4,9.5-14.7,9.5-23.1
	c0-8.4-3.2-16.6-9.5-23c-6.4-6.4-14.7-9.5-23.1-9.5l0,0c-8.2,0-16.6,3.2-23,9.5c-6.4,6.4-9.5,14.6-9.5,23c0,8.4,3.2,16.7,9.5,23.1
	c6.4,6.2,14.7,9.4,23,9.4S771.7,401,778,394.9L778,394.9z"/>
<path fill="#3F3938" d="M893.1,544c8-7.9,18.4-11.9,28.7-11.9c10.5,0,20.8,4,28.9,11.9c7.9,8,11.9,18.4,11.9,28.7
	c0,9.2-3.1,18.4-9.2,25.8l5.5,5.5c4.8-2.4,11-1.5,15,2.5l25,25c5.1,4.9,5.1,13.2,0,18.3l0,0c-5.1,5.1-13.3,5.1-18.3,0l-0.4-0.2
	l11.9-11.9l-4.9-4.9l-11.9,11.9l-4.7-4.8l11.8-11.9l-4.9-4.8l-11.8,11.8l-4.8-4.8l11.9-11.8l-4.9-4.9l-11.9,11.9l-0.2-0.4
	c-4.1-4-4.8-10.1-2.5-15l-5.5-5.5c-7.4,6.1-16.6,9.2-25.8,9.2c-10.4,0-20.7-4-28.7-11.9c-7.9-8-11.9-18.4-11.9-28.9
	C881.2,562.4,885.2,552,893.1,544L893.1,544z M934.1,558.9c-1.8-1.3-2.2-3.8-0.8-5.7c1.3-1.8,3.8-2.1,5.5-0.8
	c0.7,0.4,1.2,0.8,1.6,1.2c0.6,0.6,1.1,0.9,1.5,1.4c0.6,0.6,1.2,1.2,1.8,2c1.4,1.6,1.1,4.2-0.6,5.7c-1.8,1.4-4.4,1.2-5.8-0.6
	c-0.2-0.4-0.7-0.8-1.2-1.3c-0.4-0.5-0.7-0.7-1.1-0.9C934.8,559.4,934.4,559.1,934.1,558.9L934.1,558.9z M911.1,560.7
	c-1.5,1.5-4.1,1.5-5.8,0c-1.5-1.6-1.5-4.2,0-5.8c2.5-2.4,5.2-4.2,8.1-5.5c3.1-1.3,6.4-1.9,9.5-2c2.2-0.1,4.1,1.6,4.2,3.9
	c0,2.2-1.8,4.1-4,4.2c-2.2,0-4.5,0.5-6.6,1.4C914.7,557.8,912.8,559.1,911.1,560.7L911.1,560.7z M944.7,596.1c0-0.1,0.1-0.2,0.2-0.2
	c0-0.1,0.1-0.1,0.2-0.2c6.1-6.4,9.3-14.6,9.3-22.8s-3.2-16.6-9.5-23c-6.4-6.4-14.7-9.5-23.1-9.5c-8.2,0-16.6,3.2-23,9.5
	c-6.4,6.4-9.5,14.7-9.5,23c0,8.4,3.2,16.7,9.5,23.1c6.4,6.4,14.7,9.5,23,9.5S938.3,602.2,944.7,596.1L944.7,596.1z"/>
<path fill-rule="evenodd" clip-rule="evenodd" fill="#3F3938" d="M1127.5,203.2c4.8-2.4,11-1.6,15,2.5l25,25
	c4.9,4.9,4.9,13.2,0,18.3l0,0c-5.1,5.1-13.3,5.1-18.4,0l-25-25c-4-4-4.8-10.1-2.4-15l-5.7-5.5c-7.4,5.9-16.4,9-25.4,9
	c-10.5,0-20.8-4-28.7-11.9c-8-8-12-18.4-12-28.9c0-10.4,4-20.7,12-28.7c7.9-7.9,18.3-11.9,28.7-11.9c10.4,0,20.8,4,28.7,11.9
	c8,8,11.9,18.4,11.9,28.7c0,9.3-3.1,18.5-9.3,26L1127.5,203.2z M1113.2,195l0.1-0.1c0.1-0.1,0.2-0.2,0.2-0.2
	c6.4-6.4,9.5-14.7,9.5-23.1c0-8.2-3.2-16.6-9.5-23c-6.4-6.4-14.6-9.5-23-9.5c-8.4,0-16.7,3.2-23.1,9.5c-6.4,6.4-9.5,14.7-9.5,23
	c0,8.4,3.2,16.7,9.5,23.1c6.4,6.4,14.7,9.5,23.1,9.5C1098.7,204.2,1106.9,201.2,1113.2,195L1113.2,195z M1076.1,161.8
	c0-1.9,0.6-3.7,1.8-5.5c1.2-1.9,2.8-3.5,5.2-4.7c2.2-1.3,4.8-1.9,7.9-1.9c2.8,0,5.3,0.6,7.4,1.5c2.1,1.1,3.8,2.5,4.9,4.2
	c1.2,1.8,1.8,3.8,1.8,5.8c0,1.6-0.4,3.2-1.1,4.4c-0.6,1.3-1.4,2.4-2.4,3.2c-0.9,0.9-2.5,2.5-4.9,4.6c-0.6,0.6-1.2,1.1-1.5,1.5
	c-0.4,0.5-0.7,0.9-0.9,1.3c-0.1,0.4-0.2,0.7-0.4,1.1c-0.1,0.4-0.4,1.1-0.5,2c-0.5,2-1.5,3.1-3.5,3.1c-0.9,0-1.8-0.4-2.5-1.1
	c-0.7-0.6-1.1-1.5-1.1-2.8c0-1.6,0.2-3.1,0.7-4.2c0.6-1.2,1.2-2.2,2-3.2c0.8-0.8,2-2,3.4-3.2c1.2-1.1,2.1-1.9,2.7-2.5
	c0.5-0.6,0.9-1.2,1.4-1.8c0.4-0.7,0.5-1.4,0.5-2.2c0-1.5-0.6-2.8-1.6-3.9c-1.2-1.1-2.7-1.6-4.5-1.6c-2.1,0-3.7,0.6-4.7,1.6
	c-1.1,1.1-1.9,2.6-2.6,4.7c-0.6,2.2-1.9,3.3-3.7,3.3c-1.2,0-2-0.4-2.8-1.2C1076.5,163.6,1076.1,162.8,1076.1,161.8L1076.1,161.8z
	 M1090.3,193.6c-1.2,0-2.2-0.5-3.1-1.2c-0.9-0.7-1.3-1.9-1.3-3.2c0-1.3,0.4-2.2,1.2-3.1c0.9-0.8,1.9-1.3,3.2-1.3
	c1.2,0,2.2,0.5,3.1,1.3c0.8,0.8,1.3,1.8,1.3,3.1c0,1.3-0.5,2.4-1.3,3.2C1092.4,193.2,1091.4,193.6,1090.3,193.6L1090.3,193.6z
	 M1154,235.1c2.5-2.5,6.4-2.5,8.8,0c2.5,2.4,2.5,6.4,0,8.8c-2.5,2.5-6.4,2.5-8.8,0C1151.5,241.4,1151.5,237.4,1154,235.1L1154,235.1
	z"/>
<path fill-rule="evenodd" clip-rule="evenodd" fill="#3F3938" d="M958.8,203.2c4.8-2.4,11-1.6,15,2.5l25,25c5.1,4.9,5.1,13.2,0,18.3
	l0,0c-5.1,5.1-13.3,5.1-18.3,0l-25-25c-4.1-4-4.8-10.1-2.5-15l-5.5-5.5c-7.4,5.9-16.5,9-25.6,9c-10.4,0-20.7-4-28.7-11.9
	c-7.9-8-11.9-18.4-11.9-28.9c0-10.4,4-20.7,11.9-28.7c8-7.9,18.4-11.9,28.7-11.9c10.5,0,20.8,4,28.7,11.9c8,8,12,18.4,12,28.7
	c0,9.3-3.2,18.5-9.4,26L958.8,203.2z M944.6,195c0.1,0,0.1-0.1,0.2-0.1c0-0.1,0.1-0.2,0.2-0.2c6.4-6.4,9.5-14.7,9.5-23.1
	c0-8.2-3.2-16.6-9.5-23c-6.4-6.4-14.7-9.5-23.1-9.5c-8.2,0-16.6,3.2-23,9.5c-6.4,6.4-9.5,14.7-9.5,23c0,8.4,3.2,16.7,9.5,23.1
	c6.4,6.4,14.7,9.5,23,9.5S938.3,201.2,944.6,195L944.6,195z M929.6,176.2h-15.2c-2.4,0-4-0.4-5.2-1.2c-1.3-0.9-1.9-2-1.9-3.3
	c0-1.4,0.6-2.5,1.8-3.4c1.2-0.8,2.9-1.2,5.3-1.2h15.2c2.4,0,4.1,0.4,5.2,1.2c1.2,0.9,1.8,2,1.8,3.4c0,1.3-0.6,2.4-1.6,3.3
	C933.7,175.8,932,176.2,929.6,176.2L929.6,176.2z M985.3,235.1c2.5-2.5,6.5-2.5,9,0c2.4,2.4,2.4,6.4,0,8.8c-2.5,2.5-6.5,2.5-9,0
	C983,241.4,983,237.4,985.3,235.1L985.3,235.1z"/>
<path fill-rule="evenodd" clip-rule="evenodd" fill="#3F3938" d="M792.2,203.2c4.8-2.4,11-1.6,15,2.5l25,25c5.1,4.9,5.1,13.2,0,18.3
	l0,0c-5.1,5.1-13.2,5.1-18.3,0l-25-25c-4-4-4.8-10.1-2.5-15l-5.5-5.5c-7.4,5.9-16.5,9-25.6,9c-10.4,0-20.7-4-28.7-11.9
	c-7.9-8-11.9-18.4-11.9-28.9c0-10.4,4-20.7,11.9-28.7c8-7.9,18.4-11.9,28.7-11.9c10.5,0,20.8,4,28.9,11.9c7.9,8,11.9,18.4,11.9,28.7
	c0,9.3-3.2,18.5-9.4,26L792.2,203.2z M777.9,195c0.1,0,0.1-0.1,0.2-0.1c0.1-0.1,0.1-0.2,0.2-0.2c6.4-6.4,9.5-14.7,9.5-23.1
	c0-8.2-3.2-16.6-9.5-23c-6.4-6.4-14.7-9.5-23.1-9.5c-8.2,0-16.6,3.2-23,9.5c-6.4,6.4-9.5,14.7-9.5,23c0,8.4,3.2,16.7,9.5,23.1
	c6.4,6.4,14.7,9.5,23,9.5S771.7,201.2,777.9,195L777.9,195z M757.1,146.9v2.8c1.9,0.2,3.5,0.6,4.8,1.2c1.3,0.6,2.5,1.4,3.5,2.6
	c0.7,0.9,1.4,1.8,1.8,2.7c0.5,0.9,0.7,1.9,0.7,2.6c0,0.9-0.4,1.6-1.1,2.4c-0.6,0.6-1.3,0.9-2.2,0.9c-1.8,0-2.8-0.9-3.3-2.8
	c-0.6-2.1-2-3.7-4.2-4.4v11c2.2,0.6,3.9,1.1,5.2,1.5c1.3,0.5,2.5,1.2,3.4,2.1c1.2,0.9,2,2.1,2.6,3.4c0.6,1.4,0.8,2.8,0.8,4.5
	c0,2-0.5,3.8-1.4,5.5c-0.9,1.8-2.2,3.2-4.1,4.2c-1.8,1.1-4,1.8-6.5,2v6.5c0,1.1-0.1,1.8-0.2,2.2c-0.2,0.5-0.7,0.7-1.4,0.7
	c-0.6,0-1.1-0.1-1.3-0.6c-0.2-0.4-0.4-0.9-0.4-1.8v-7.1c-2-0.2-3.8-0.7-5.3-1.4c-1.5-0.7-2.8-1.6-3.9-2.7c-0.9-1.2-1.8-2.2-2.2-3.4
	c-0.5-1.2-0.7-2.4-0.7-3.5c0-0.8,0.4-1.5,0.9-2.2c0.7-0.6,1.5-0.9,2.5-0.9c0.8,0,1.4,0.1,2,0.5c0.5,0.4,0.9,0.9,1.1,1.5
	c0.5,1.5,0.9,2.6,1.3,3.3c0.4,0.8,0.8,1.5,1.5,2.1c0.7,0.6,1.6,1.1,2.8,1.4v-12.1c-2.4-0.7-4.2-1.4-5.9-2.1c-1.5-0.8-2.8-2-3.8-3.4
	c-0.9-1.4-1.4-3.3-1.4-5.7c0-2.9,0.9-5.4,2.8-7.4c1.9-1.9,4.6-2.9,8.2-3.3v-2.8c0-1.4,0.6-2.1,1.6-2.1
	C756.6,144.8,757.1,145.5,757.1,146.9L757.1,146.9z M753.8,164.8v-10c-1.4,0.5-2.6,1.1-3.4,1.8c-0.8,0.7-1.2,1.8-1.2,3.2
	c0,1.4,0.4,2.5,1.1,3.2C751.1,163.6,752.2,164.2,753.8,164.8L753.8,164.8z M757.1,172.5V184c1.8-0.2,3.2-0.9,4.1-2
	c0.9-1.2,1.4-2.4,1.4-3.8c0-1.5-0.5-2.7-1.4-3.5C760.2,173.8,758.9,173.1,757.1,172.5L757.1,172.5z M818.8,235.1
	c2.4-2.5,6.4-2.5,8.8,0c2.5,2.4,2.5,6.4,0,8.8s-6.5,2.5-8.8,0C816.3,241.4,816.3,237.4,818.8,235.1L818.8,235.1z"/>
</svg>
