<?xml version="1.0" encoding="utf-8"?>
<!-- Generator: Adobe Illustrator 18.0.0, SVG Export Plug-In . SVG Version: 6.00 Build 0)  -->
<!DOCTYPE svg PUBLIC "-//W3C//DTD SVG 1.1//EN" "http://www.w3.org/Graphics/SVG/1.1/DTD/svg11.dtd">
<svg version="1.1" id="Layer_1" xmlns="http://www.w3.org/2000/svg" xmlns:xlink="http://www.w3.org/1999/xlink" x="0px" y="0px"
	 width="1400px" height="980px" viewBox="0 0 1400 980" enable-background="new 0 0 1400 980" xml:space="preserve">
<g>
	<g>
		<path fill="#373737" d="M283.6,145l-2.5,2.8c12.1,10.7,18.3,23.2,21.6,32.1c1.1-0.4,2.3-0.8,3.5-1.1
			C302.9,169.6,296.4,156.3,283.6,145z"/>
		<path fill="#373737" d="M347,147.8l-2.5-2.8c-12.8,11.3-19.3,24.5-22.7,33.8c1.2,0.3,2.4,0.7,3.6,1.1
			C328.7,171,334.9,158.4,347,147.8z"/>
		<path fill="#373737" d="M240.2,239.3c-1.1-6.2-5.2-24-16.4-36.7l-5.6,4.9c12,13.6,14.9,34.8,14.9,35l0.3,2.2l2,0.8
			c6.9,2.7,14.1,5.7,20.1,8.2c1.1-2.5,2.2-4.7,3.2-6.7C254.1,244.9,248.1,242.4,240.2,239.3z"/>
		<path fill="#373737" d="M230.6,263.7l-32.4,17.7l-15.8-9.5l-3.8,6.4l19.4,11.6l32.1-17.5l14.3,10c0.8-2.5,1.6-5,2.4-7.3
			L230.6,263.7z"/>
		<path fill="#373737" d="M219.8,320.9l-3.1,1.1l8.6,39.3l-19.8,33.3l6.4,3.8l21.3-35.8l-7.8-35.8c2.8-1,7.2-2.5,11.9-4.2
			c0.1-2.7,0.2-5.4,0.5-8C228.8,317.6,220.5,320.6,219.8,320.9z"/>
		<path fill="#373737" d="M393,245.4l2-0.8l0.3-2.2c0-0.2,2.9-21.3,14.9-35l-5.6-4.9c-11.2,12.7-15.3,30.5-16.4,36.7
			c-8,3.2-14.1,5.7-18.8,7.7c1,2,2.1,4.3,3.2,6.7C378.8,251.1,386.1,248.1,393,245.4z"/>
		<path fill="#373737" d="M398.3,272.4l32.1,17.5l19.4-11.6l-3.8-6.4l-15.8,9.5l-32.4-17.7l-16.4,11.5c0.8,2.4,1.6,4.8,2.4,7.4
			L398.3,272.4z"/>
		<path fill="#373737" d="M403.1,326.8l-7.8,35.8l21.3,35.8l6.4-3.8l-19.8-33.3l8.6-39.3l-3.1-1.1c-0.7-0.3-9.2-3.3-18.2-6.5
			c0.3,2.7,0.4,5.4,0.5,8C395.9,324.2,400.3,325.8,403.1,326.8z"/>
		<path fill="#373737" d="M359,242.8c-8.5,9.4-25.2,15.6-44.9,15.6c-19.6,0-36.4-6.2-44.9-15.6c-7.6,14.1-36.6,72.3-19,112
			c11.1,25.2,29.7,41,43.3,49.8c6.2,4,13.3,6.1,20.6,6.1c7.4,0,14.5-2.1,20.6-6.1c13.6-8.8,32.2-24.6,43.3-49.8
			C395.6,315.2,366.6,256.9,359,242.8z"/>
		<path fill="#373737" d="M314.1,251.1c23.6,0,43.5-10.4,43.5-22.7c0-8.3-9.1-15.7-22.3-19.7c-4.6,5.3-12.4,8.7-21.3,8.7
			c-8.8,0-16.6-3.5-21.3-8.7c-13.2,4-22.3,11.4-22.3,19.7C270.6,240.7,290.5,251.1,314.1,251.1z"/>
		<path fill="#373737" d="M314.1,210c9.9,0,18.2-5.7,18.2-12.3c0-6.7-8.3-12.3-18.2-12.3c-9.9,0-18.2,5.7-18.2,12.3
			C295.9,204.4,304.3,210,314.1,210z"/>
	</g>
	<g>
		<path fill="#373737" d="M745.7,182c-1.5-1.2-3-2.5-4.6-3.8c-1.6-1.3-3.2-2.6-4.7-4c-1.5-1.4-3-2.8-4-4.3l-0.2-0.3l0,0l-0.1-0.1
			l-0.4-0.7l-0.9-1.4l-0.5-1.2l-0.3-0.6c-0.1-0.2-0.1-0.4-0.2-0.6c-0.7-1.6-0.8-3.3-0.8-4.8c0-1.6,0.4-3.1,1-4.7
			c0.5-1.5,1.2-3,1.9-4.4c0.7-1.4,1.4-2.8,2-3.9c0.6-1.2,1.1-2.3,1.6-3.2c0.4-0.9,0.7-1.7,1-2.2c0.2-0.5,0.3-0.8,0.3-0.8
			c0-0.1,0.1-0.2,0.1-0.3c0.8-2.4-0.4-5-2.8-5.8c-2.4-0.8-5,0.4-5.8,2.8l-0.1,0.2c0,0-0.1,0.2-0.2,0.7c-0.2,0.4-0.4,1.1-0.7,1.9
			c-0.3,0.8-0.7,1.9-1.2,3.1c-0.5,1.3-1.1,2.7-1.7,4.2c-0.6,1.6-1.3,3.4-1.8,5.5c-0.5,2.1-1,4.4-0.8,7c0.1,2.5,0.7,5.1,1.8,7.4
			c0.1,0.3,0.2,0.6,0.4,0.9l0.5,0.9c0.3,0.6,0.7,1.2,1,1.7l1,1.3l0.5,0.7l0.1,0.2l0.1,0.2l0,0l0,0l0.1,0.1l0.3,0.3
			c1.6,1.9,3.4,3.4,5.2,4.8c1.8,1.4,3.6,2.6,5.3,3.8c1.5,1,3,2,4.4,3c1.5-1,3.1-1.9,4.7-2.6C746.5,182.7,746.1,182.4,745.7,182z"/>
		<path fill="#373737" d="M784,182.7c1.7-1.2,3.5-2.4,5.3-3.8c1.8-1.4,3.6-2.9,5.2-4.8l0.3-0.3l0.1-0.1l0,0l0,0l0.1-0.2l0.1-0.2
			l0.5-0.7l1-1.3c0.3-0.5,0.7-1.1,1-1.7l0.5-0.9c0.1-0.3,0.3-0.6,0.4-0.9c1.1-2.3,1.7-4.9,1.8-7.4c0.1-2.5-0.3-4.9-0.8-7
			c-0.5-2.1-1.2-3.9-1.8-5.5c-0.6-1.5-1.2-3-1.7-4.2c-0.5-1.2-0.9-2.3-1.2-3.1c-0.3-0.9-0.5-1.5-0.7-1.9c-0.2-0.4-0.2-0.7-0.2-0.7
			l-0.1-0.2c0-0.1-0.1-0.2-0.1-0.3c-1-2.3-3.7-3.4-6-2.4c-2.3,1-3.4,3.7-2.4,6c0,0,0.1,0.3,0.3,0.8c0.2,0.5,0.5,1.3,1,2.2
			c0.4,0.9,1,2,1.6,3.2c0.6,1.2,1.3,2.5,2,3.9c0.6,1.4,1.4,2.9,1.9,4.4c0.5,1.5,0.9,3.1,1,4.7c0,1.6-0.1,3.2-0.8,4.8
			c-0.1,0.2-0.1,0.4-0.2,0.6l-0.3,0.6l-0.5,1.2l-0.9,1.4l-0.4,0.7l-0.1,0.1l0,0l-0.2,0.3c-1.1,1.5-2.5,2.9-4,4.3
			c-1.5,1.4-3.1,2.7-4.7,4c-1.6,1.3-3.2,2.5-4.6,3.8c-0.5,0.4-0.9,0.8-1.4,1.2c1.6,0.8,3.2,1.6,4.6,2.6
			C780.8,184.8,782.4,183.8,784,182.7z"/>
		<path fill="#373737" d="M679.9,236.1l-22.4-58.4c-1.1-2.9-4.3-4.3-7.2-3.2c-2.9,1.1-4.3,4.3-3.2,7.2l23.3,60.8
			c0.6,1.5,1.8,2.7,3.4,3.3l22.6,7.8c2.1-3.3,4.4-6.5,6.8-9.4L679.9,236.1z"/>
		<path fill="#373737" d="M654.2,280.1c-2.1-0.3-4.2,0.7-5.3,2.5l-26.6,40.7l-23.4,6.4c-3,0.8-4.7,3.9-3.9,6.8
			c0.7,2.5,2.9,4.1,5.4,4.1c0.5,0,1-0.1,1.5-0.2l25.5-6.9c1.3-0.4,2.5-1.2,3.2-2.3l25.9-39.6l24.5,3c0.7-3.7,1.5-7.3,2.5-10.9
			L654.2,280.1z"/>
		<path fill="#373737" d="M664.4,335.8c-2.4,0-4.5,1.5-5.3,3.8L639,399.8l-24.7,10.6c-2.8,1.2-4.1,4.5-2.9,7.3
			c0.9,2.1,3,3.4,5.1,3.4c0.7,0,1.5-0.1,2.2-0.5l27-11.6c1.5-0.6,2.6-1.8,3.1-3.4l19.6-58.7h14.2c-0.9-3.6-1.7-7.4-2.2-11.1H664.4z"
			/>
		<path fill="#373737" d="M854.8,245.8c1.6-0.5,2.8-1.7,3.4-3.3l23.3-60.8c1.1-2.9-0.3-6.1-3.2-7.2c-2.9-1.1-6.1,0.3-7.2,3.2
			l-22.4,58.4l-29.1,10c2.3,3,4.5,6.2,6.5,9.5L854.8,245.8z"/>
		<path fill="#373737" d="M929.8,329.7l-23.4-6.4l-26.6-40.7c-1.2-1.8-3.2-2.7-5.3-2.5l-36.2,4.4c1,3.6,1.7,7.2,2.4,10.9l31.7-3.9
			l25.9,39.6c0.7,1.1,1.9,2,3.2,2.3l25.5,6.9c0.5,0.1,1,0.2,1.5,0.2c2.5,0,4.7-1.6,5.4-4.1C934.5,333.5,932.8,330.5,929.8,329.7z"/>
		<path fill="#373737" d="M860.2,346.9l19.6,58.7c0.5,1.5,1.6,2.7,3.1,3.4l27,11.6c0.7,0.3,1.5,0.5,2.2,0.5c2.2,0,4.2-1.3,5.1-3.4
			c1.2-2.8-0.1-6.1-2.9-7.3l-24.7-10.6l-20.1-60.2c-0.8-2.3-2.9-3.8-5.3-3.8h-23.3c-0.6,3.8-1.3,7.5-2.2,11.1H860.2z"/>
		<path fill="#373737" d="M785.9,219.8c0.5-2,0.8-4.1,0.8-6.2c0-14.3-11.7-26-26-26c-14.3,0-26,11.7-26,26c0,2.2,0.3,4.2,0.8,6.2
			c8-3.3,16.5-5,25.2-5S777.9,216.5,785.9,219.8z"/>
		<path fill="#373737" d="M698.8,264.2h123.6c-13.7-26.1-37-42.1-61.8-42.1C735.8,222.2,712.6,238.1,698.8,264.2z"/>
		<path fill="#373737" d="M826,271.7H695.3c-5.9,13.7-9,29.2-9,45c0,52.1,33.3,94.5,74.3,94.5c41,0,74.3-42.4,74.3-94.5
			C835,300.9,831.9,285.4,826,271.7z"/>
	</g>
	<g>
		<g>
			<path fill="#373737" d="M1107.4,214.8c-1.6-1.5-3.3-3.2-5-5.1c-0.9-1-1.8-2-2.7-3c-0.9-1-1.9-2-2.9-3.1c-3.9-4.2-8-8.6-11.9-13.2
				c-1.9-2.3-3.8-4.6-5.4-7c-1.7-2.4-3.3-4.8-4.6-7.2c-0.3-0.6-0.6-1.1-0.9-1.7c-0.3-0.6-0.5-1.2-0.8-1.8c-0.2-0.6-0.5-1.2-0.7-1.8
				c-0.2-0.6-0.4-1.2-0.6-1.8c-0.7-2.3-1.2-4.6-1.4-6.7c-0.2-2.1-0.3-4-0.2-5.7c0.1-1.7,0.4-3.1,0.6-4.3c0.3-1.1,0.6-2,0.8-2.6
				c0.2-0.6,0.3-0.9,0.3-0.9l0.1-0.2c0,0,0,0,0,0c0.5-1.5-0.2-3.2-1.7-3.7c-1.5-0.5-3.2,0.2-3.7,1.7c0,0-0.1,0.4-0.4,1.2
				c-0.3,0.7-0.6,1.9-0.9,3.3c-0.3,1.4-0.6,3.2-0.7,5.2c-0.1,2,0,4.3,0.3,6.7c0.3,2.4,0.9,5,1.8,7.6c0.2,0.7,0.5,1.3,0.7,2
				c0.2,0.7,0.5,1.3,0.8,2c0.3,0.7,0.6,1.3,0.9,2c0.3,0.7,0.7,1.4,1.1,2c1.5,2.6,3.2,5.1,5,7.5c1.8,2.5,3.8,4.9,5.8,7.2
				c4.1,4.7,8.4,9,12.3,13.1c1,1,2,2,2.9,3c0.9,1,1.9,2,2.8,2.9c1.8,1.9,3.6,3.7,5.4,5.3c0.2,0.2,0.4,0.3,0.6,0.5
				c0.8-1.1,1.8-2,2.8-2.9C1107.9,215.2,1107.7,215,1107.4,214.8z"/>
			<path fill="#373737" d="M1143.1,214.8c1.6-1.5,3.3-3.2,5-5.1c0.9-1,1.8-2,2.7-3c0.9-1,1.9-2,2.9-3.1c3.9-4.2,8-8.6,11.9-13.2
				c1.9-2.3,3.8-4.6,5.4-7c1.7-2.4,3.3-4.8,4.6-7.2c0.3-0.6,0.6-1.1,0.9-1.7c0.3-0.6,0.5-1.2,0.8-1.8c0.2-0.6,0.5-1.2,0.7-1.8
				c0.2-0.6,0.4-1.2,0.6-1.8c0.7-2.3,1.2-4.6,1.4-6.7c0.2-2.1,0.3-4,0.2-5.7c-0.1-1.7-0.4-3.1-0.6-4.3c-0.3-1.1-0.6-2-0.8-2.6
				c-0.2-0.6-0.3-0.9-0.3-0.9l-0.1-0.2c0,0,0,0,0,0c-0.5-1.5,0.2-3.2,1.7-3.7c1.5-0.5,3.2,0.2,3.7,1.7c0,0,0.1,0.4,0.4,1.2
				c0.3,0.7,0.6,1.9,0.9,3.3c0.3,1.4,0.6,3.2,0.7,5.2c0.1,2,0,4.3-0.3,6.7c-0.3,2.4-0.9,5-1.8,7.6c-0.2,0.7-0.5,1.3-0.7,2
				c-0.2,0.7-0.5,1.3-0.8,2c-0.3,0.7-0.6,1.3-0.9,2c-0.3,0.7-0.7,1.4-1.1,2c-1.5,2.6-3.2,5.1-5,7.5c-1.8,2.5-3.8,4.9-5.8,7.2
				c-4.1,4.7-8.4,9-12.3,13.1c-1,1-2,2-2.9,3c-0.9,1-1.9,2-2.8,2.9c-1.8,1.9-3.6,3.7-5.4,5.3c-0.2,0.2-0.4,0.3-0.6,0.5
				c-0.8-1.1-1.8-2-2.8-2.9C1142.6,215.2,1142.8,215,1143.1,214.8z"/>
		</g>
		<path fill="#373737" d="M1142.1,233.7l-2.3-12.5c-1.3-7-7.4-12.1-14.5-12.1s-13.2,5.1-14.5,12.1l-2.3,12.5H1142.1z"/>
		<path fill="#373737" d="M1189,271.1c4.6-2.2,9.2-4.4,13.8-6.5l0.2-0.1c0.6-0.3,1.1-0.9,1.1-1.6v0c0.1-0.6,0.3-1.2,0.4-1.9
			c0.2-0.6,0.3-1.3,0.5-1.9c0.3-1.3,0.7-2.5,1.1-3.8c0.2-0.6,0.4-1.2,0.7-1.9c0.2-0.6,0.5-1.2,0.7-1.8c0.2-0.6,0.5-1.2,0.7-1.8
			c0.3-0.6,0.5-1.2,0.8-1.8l0.8-1.7l0.9-1.7c0.3-0.6,0.6-1.1,1-1.7c0.3-0.5,0.6-1.1,1-1.6l1.1-1.6c0.4-0.5,0.8-1,1.1-1.5
			c0.4-0.5,0.8-1,1.2-1.4l1.2-1.4l0.2-0.2c0.1-0.1,0.2-0.2,0.2-0.3c1.2-1.6,0.9-4-0.8-5.2c-1.6-1.2-4-0.9-5.2,0.8l-1.3,1.8
			c-0.5,0.6-0.9,1.2-1.2,1.8c-0.4,0.6-0.8,1.2-1.2,1.9l-1,1.9c-0.4,0.6-0.6,1.3-1,1.9c-0.3,0.6-0.6,1.3-0.9,2l-0.8,2l-0.7,2
			c-0.3,0.7-0.5,1.3-0.7,2c-0.2,0.7-0.4,1.3-0.6,2c-0.2,0.7-0.4,1.3-0.6,2c-0.2,0.7-0.3,1.4-0.5,2c-0.3,1.4-0.6,2.7-0.8,4.1
			c-0.1,0.7-0.2,1.4-0.3,2.1c0,0.3-0.1,0.6-0.1,0.9c-3.9,1.3-7.8,2.7-11.7,4.1c-0.2,2.5-0.8,4.9-1.8,7.1
			C1187.4,271.9,1188.2,271.5,1189,271.1z"/>
		<path fill="#373737" d="M1250.2,287.2c-1-1.7-3.3-2.3-5.1-1.3l-12.3,7.4l-24.6-11.6l0,0c-0.6-0.3-1.4-0.3-2.1,0.1l-21.2,13.1
			c0.5,0.5,1.1,1,1.6,1.5c1.1,1,2.2,2.1,3.3,3.2l17.5-13.8l23.8,14.9c1,0.6,2.4,0.7,3.5,0l0.2-0.1l14-8.4
			C1250.7,291.2,1251.2,288.9,1250.2,287.2z"/>
		<path fill="#373737" d="M1203.7,327l9.1,2.6l-8.1,28c-0.2,0.8-0.1,1.7,0.3,2.5l0.1,0.2l16.4,27.6c1,1.8,3.3,2.3,5.1,1.3
			s2.3-3.3,1.3-5.1l-15.7-26.5l4.3-28.8c0.1-0.8-0.3-1.6-1.1-1.9l-11.5-4.9c0,0.1,0,0.1,0,0.2C1203.8,323.8,1203.7,325.4,1203.7,327
			z"/>
		<path fill="#373737" d="M1051.3,261.1c0-0.3-0.1-0.6-0.1-0.9c-0.1-0.7-0.2-1.4-0.3-2.1c-0.2-1.4-0.5-2.7-0.8-4.1
			c-0.2-0.7-0.3-1.4-0.5-2c-0.2-0.7-0.4-1.4-0.6-2c-0.2-0.7-0.4-1.3-0.6-2c-0.2-0.7-0.4-1.3-0.7-2l-0.7-2l-0.8-2
			c-0.3-0.7-0.6-1.3-0.9-2c-0.3-0.6-0.6-1.3-1-1.9l-1-1.9c-0.4-0.6-0.8-1.2-1.2-1.9c-0.4-0.6-0.8-1.2-1.2-1.8l-1.3-1.8
			c-1.2-1.6-3.5-2-5.2-0.8c-1.6,1.2-2,3.5-0.8,5.2c0.1,0.1,0.1,0.2,0.2,0.3l0.2,0.2l1.2,1.4c0.4,0.4,0.8,0.9,1.2,1.4
			c0.4,0.5,0.8,1,1.1,1.5l1.1,1.6c0.4,0.5,0.7,1.1,1,1.6c0.3,0.5,0.7,1.1,1,1.7l0.9,1.7l0.8,1.7c0.3,0.6,0.5,1.2,0.8,1.8
			c0.3,0.6,0.5,1.2,0.7,1.8c0.2,0.6,0.5,1.2,0.7,1.8c0.2,0.6,0.4,1.2,0.7,1.9c0.4,1.2,0.8,2.5,1.1,3.8c0.2,0.6,0.3,1.3,0.5,1.9
			c0.2,0.6,0.3,1.3,0.4,1.9v0c0.1,0.7,0.5,1.3,1.1,1.6l0.2,0.1c4.6,2.1,9.3,4.3,13.8,6.5c0.5,0.2,1,0.5,1.4,0.7
			c-0.9-2.2-1.4-4.5-1.6-6.9C1058.6,263.6,1054.9,262.3,1051.3,261.1z"/>
		<path fill="#373737" d="M1066.1,294.7l-20.8-12.8c-0.7-0.4-1.4-0.4-2.1-0.1l0,0l-24.6,11.6l-12.3-7.4c-1.8-1-4-0.5-5.1,1.3
			c-1,1.7-0.5,4,1.3,5.1l14,8.4l0.2,0.1c1.1,0.7,2.5,0.6,3.5,0l23.8-14.9l17.1,13.4c1-0.9,2-1.9,3-2.8
			C1064.8,295.9,1065.4,295.3,1066.1,294.7z"/>
		<path fill="#373737" d="M1036.2,326.9c-0.8,0.3-1.2,1.1-1.1,1.9l4.3,28.8l-15.7,26.5c-1,1.8-0.5,4,1.3,5.1c1.8,1,4,0.5,5.1-1.3
			l16.4-27.6l0.1-0.2c0.5-0.8,0.5-1.7,0.3-2.5l-8.1-28l8.3-2.4c-0.1-1.6-0.1-3.2-0.1-4.8L1036.2,326.9z"/>
		<path fill="#373737" d="M1061.7,307.1c-4.9,5-8.9,10.3-8.9,15.1c0,2.9,0.1,5.8,0.4,8.6h144.3c0.2-2.8,0.4-5.7,0.4-8.6
			c0-4.9-4-10.1-8.9-15.1H1061.7z"/>
		<path fill="#373737" d="M1196.8,336.7H1054c1.7,9.6,5,18.7,10.1,27.1H1188C1192.4,355.5,1195.4,346.5,1196.8,336.7z"/>
		<path fill="#373737" d="M1068,369.7c5.6,7.8,12.7,15,21.4,21.6c16.1,12.3,32.4,18.3,36.1,19.6c3.7-1,20-5.9,36.1-17.6
			c9.5-6.9,17.1-14.8,22.9-23.7H1068z"/>
		<path fill="#373737" d="M1067.8,301.2h115.1c-0.1-0.1-0.3-0.2-0.4-0.4c-5.2-4.9-10.2-9.6-12.8-14.4h-4.5h-79.7h-4.5
			c-2.5,4.7-7.5,9.4-12.8,14.4C1068.1,300.9,1067.9,301,1067.8,301.2z"/>
		<path fill="#373737" d="M1085.5,280.5h79.7c9.6,0,17.4-7.8,17.4-17.4V257c0-9.6-7.8-17.4-17.4-17.4h-79.7
			c-9.6,0-17.4,7.8-17.4,17.4v6.1C1068.1,272.7,1075.9,280.5,1085.5,280.5z"/>
	</g>
	<g>
		<path fill="#373737" d="M741.8,572.9c-6.5-10-10.1-19.3-6.8-32c1.6-6,4.1-11.9,6.6-17.6c3.6-8.4,7.3-17,8.4-26.5
			c0.2-2,0.1-4.4,0-7.1c-0.2-4.3-0.4-10.2,1.3-12.2l-4.5-3.5c-2.9,3.7-2.7,10.2-2.5,16c0.1,2.4,0.2,4.7,0,6.2
			c-1,8.7-4.4,16.6-8,24.9c-2.5,5.9-5.2,12-6.8,18.4c-4.1,15.6,1.2,26.8,7.5,36.5c2.5,3.9,4.9,6.3,7.4,8.2c1-1.6,2.1-3.2,3.3-4.6
			C745.8,578.1,743.9,576.1,741.8,572.9z"/>
		<path fill="#373737" d="M782.8,582.2c1.7-1.6,3.3-3.6,5-6.2c6.3-9.7,11.6-20.9,7.5-36.5c-1.7-6.4-4.3-12.5-6.8-18.4
			c-3.6-8.3-7-16.2-8-24.9c-0.2-1.6-0.1-3.8,0-6.2c0.2-5.7,0.4-12.3-2.5-16l-4.5,3.5c1.6,2.1,1.4,7.9,1.3,12.2
			c-0.1,2.6-0.2,5.1,0,7.1c1.1,9.5,4.8,18.2,8.4,26.5c2.5,5.7,5,11.6,6.6,17.6c3.3,12.7-0.3,22-6.8,32c-1.4,2.1-2.6,3.7-3.9,4.9
			C780.5,579.1,781.7,580.6,782.8,582.2z"/>
		<path fill="#373737" d="M816.4,629.6c1.4-0.6,2.8-1.3,4.3-1.9c2.9-1.3,5.9-2.5,8.9-3.8l9-3.7l9-3.6l4.5-1.8l0.8-5v0
			c0-0.1,0-0.3,0-0.5c0-0.2,0-0.4,0-0.6c0-0.4,0-0.8,0-1.2c0-0.8,0-1.6,0.1-2.4c0.1-1.6,0.2-3.2,0.4-4.9c0.1-0.8,0.2-1.6,0.3-2.4
			c0.1-0.8,0.2-1.6,0.4-2.4c0.1-0.8,0.3-1.6,0.4-2.4c0.2-0.8,0.3-1.6,0.5-2.4l0.6-2.4l0.7-2.4c0.2-0.8,0.5-1.6,0.8-2.4
			c0.3-0.8,0.5-1.6,0.8-2.3l0.9-2.3c0.3-0.8,0.7-1.5,1.1-2.3c0.4-0.8,0.7-1.5,1.2-2.2l1.3-2.2l-3.1-2.7l-2,1.8
			c-0.7,0.6-1.3,1.3-2,1.9c-0.6,0.7-1.3,1.3-1.9,2l-1.8,2.1c-0.6,0.7-1.1,1.5-1.7,2.2c-0.6,0.7-1.1,1.5-1.6,2.3l-1.5,2.3l-1.4,2.4
			c-0.5,0.8-0.9,1.6-1.4,2.4c-0.5,0.8-0.9,1.6-1.3,2.5c-0.4,0.8-0.9,1.7-1.2,2.5c-0.4,0.8-0.8,1.7-1.2,2.6c-0.8,1.7-1.5,3.5-2.1,5.2
			c0,0.1-0.1,0.2-0.1,0.3l-5.6,2.3l-9.1,3.8c-1.6,0.7-3.2,1.3-4.8,2c-0.3,7.2-1.8,14.9-3.3,20.1C815.4,630,815.9,629.8,816.4,629.6z
			"/>
		<path fill="#373737" d="M921,669.6l-16.4,7.2l-29.4-20.1l-4.2-2.9l-4.8,3.3l-19.4,13.6c3.5,4.5,6.4,9.4,8.7,14.7l16.6-11.6
			l29.6,12.5l3,1.3l1.7-1.4l16.6-13.1L921,669.6z"/>
		<path fill="#373737" d="M871,768.1l-3.5,31.6l-0.2,2l0.7,1.1l22.4,34.5l4.7-2.8l-18.6-34.4l12-36.1l2.4-7.1l-7.9-2.8l-23.7-8.4
			c-1.2,5.8-2.8,11.2-4.6,16.5L871,768.1z"/>
		<path fill="#373737" d="M704.3,608.1l-9.1-3.8l-5.6-2.3c0-0.1-0.1-0.2-0.1-0.3c-0.7-1.8-1.4-3.5-2.1-5.2c-0.4-0.9-0.8-1.7-1.2-2.6
			c-0.4-0.9-0.8-1.7-1.2-2.5c-0.4-0.8-0.9-1.7-1.3-2.5c-0.5-0.8-0.9-1.6-1.4-2.4l-1.4-2.4l-1.5-2.3c-0.5-0.8-1.1-1.5-1.6-2.3
			c-0.6-0.7-1.1-1.5-1.7-2.2l-1.8-2.1c-0.6-0.7-1.3-1.4-1.9-2c-0.6-0.7-1.3-1.3-2-1.9l-2-1.8l-3.1,2.7l1.3,2.2
			c0.4,0.7,0.8,1.5,1.2,2.2c0.4,0.8,0.7,1.5,1.1,2.3l0.9,2.3c0.3,0.8,0.6,1.6,0.8,2.3c0.3,0.8,0.5,1.6,0.8,2.4l0.7,2.4l0.6,2.4
			c0.2,0.8,0.3,1.6,0.5,2.4c0.2,0.8,0.3,1.6,0.4,2.4c0.1,0.8,0.3,1.6,0.4,2.4c0.1,0.8,0.2,1.6,0.3,2.4c0.2,1.6,0.3,3.2,0.4,4.9
			c0,0.8,0.1,1.6,0.1,2.4c0,0.4,0,0.8,0,1.2c0,0.2,0,0.4,0,0.6c0,0.2,0,0.4,0,0.5l0,0l0.8,5l4.5,1.8l9,3.6l9,3.7
			c3,1.2,6,2.5,8.9,3.8c1.5,0.6,2.9,1.3,4.3,1.9c0.7,0.3,1.4,0.6,1.9,0.9l0.4,0.2c0.1,0.1,0.3,0.1,0.3,0.2l0.1,0l0,0
			c-0.2-0.1-0.3-0.2-0.5-0.3c-0.3-0.2-0.6-0.5-0.8-0.8c0-0.1,0,0,0,0l0,0l0.1,0.1l0.1,0.1l0.9-0.8c-1.3-5-2.7-12-3-18.5
			C708.4,609.8,706.3,609,704.3,608.1z"/>
		<path fill="#373737" d="M661,657.3l-4.8-3.3l-4.2,2.9l-29.4,20.1l-16.4-7.2l-2.2,3.6l16.6,13.1l1.7,1.4l3-1.3l29.6-12.5l17.7,12.3
			c2.2-5.4,5.1-10.3,8.6-14.8L661,657.3z"/>
		<path fill="#373737" d="M644.3,754.2l-7.9,2.8l2.4,7.1l12,36.1l-18.6,34.4l4.7,2.8l22.4-34.5l0.7-1.1l-0.2-2l-3.5-31.6l17.6-6.2
			c-1.8-5.2-3.3-10.7-4.5-16.5L644.3,754.2z"/>
		<path fill="#373737" d="M745.7,600.3c5.8,1.7,12,2.9,18.6,2.9c6.6,0,12.9-1.2,18.6-2.9c-2.9-9.5-8.6-21.3-18.6-21.3
			C754.3,579,748.6,590.8,745.7,600.3z"/>
		<path fill="#373737" d="M737.8,642.1c0.7,0.2,1.2,0.3,1.7,0.5l24.6,0c0,0,0,0,0,0l0.1,0l0.1,0c0,0,0,0,0,0l24.6,0
			c0.5-0.2,1-0.3,1.7-0.5c4.5-1.2,14-3.7,16.8-13.8c4.3-15.6,3.4-27.7,1.4-28.8c-0.1,0-0.2,0-0.4,0c-2.5,0.6-5.8,1.8-9.6,3.3
			c-8.9,3.4-21.1,8-34.7,8c-13.6,0-25.8-4.6-34.7-8c-3.8-1.4-7.1-2.7-9.6-3.3c-0.2,0-0.3,0-0.3,0c-2,1.1-3,13.2,1.4,28.8
			C723.8,638.4,733.3,640.9,737.8,642.1z"/>
		<path fill="#373737" d="M839.8,674.2c-17.8-21.4-46.2-23.9-48-24h-55c-1.9,0.1-30.4,2.7-48.1,24.1c-12.1,14.5-16.7,34.5-13.6,59.4
			c5.1,41.8,29.4,70,48.9,86.4c18.1,15.1,35.4,23.1,40.2,25.2c4.9-2.1,22.4-10.2,40.4-25.4c28.3-23.8,44.7-52.8,48.8-86.2
			C856.5,708.7,851.9,688.7,839.8,674.2z"/>
	</g>
	<g>
		<path fill="#373737" d="M1056.2,641.8l-16.8-43.9c-0.8-2.2-3.3-3.2-5.4-2.4c-2.2,0.8-3.2,3.3-2.4,5.4l17.5,45.8
			c0.4,1.2,1.4,2.1,2.6,2.5l24.2,8.3c1-2.7,2.2-5.2,3.7-7.6L1056.2,641.8z"/>
		<path fill="#373737" d="M1066.4,688.1l-35.8-4.4c-1.6-0.2-3.1,0.5-4,1.9l-20.1,30.6l-17.6,4.8c-2.2,0.6-3.6,2.9-2.9,5.2
			c0.5,1.9,2.2,3.1,4,3.1c0.4,0,0.7,0,1.1-0.1l19.2-5.2c1-0.3,1.8-0.9,2.4-1.7l19.5-29.8l31.4,3.8c0.8-1.9,1.7-3.7,2.7-5.4
			C1066.2,689.9,1066.2,689,1066.4,688.1z"/>
		<path fill="#373737" d="M1030.3,751.3c-1.8,0.4-3,2-3.2,3.8l-3.6,47.6l-16.1,12.3c-1.8,1.4-2.2,4-0.8,5.9c0.8,1.1,2.1,1.7,3.3,1.7
			c0.9,0,1.8-0.3,2.5-0.9l17.6-13.4c1-0.7,1.5-1.8,1.6-3l3.5-46.5l24.8-6.3c-0.5-2.8-1-5.6-1.3-8.3L1030.3,751.3z"/>
		<path fill="#373737" d="M1113.5,618.1l-26.6-9.2l4.3-37.4c0.1-1-0.6-1.8-1.5-1.9c-1-0.1-1.8,0.6-1.9,1.5l-4.5,38.8
			c-0.1,0.8,0.4,1.6,1.2,1.9l26,8.9C1111.3,619.7,1112.4,618.8,1113.5,618.1z"/>
		<path fill="#373737" d="M1200.8,649.1c1.2-0.4,2.1-1.3,2.6-2.5l17.5-45.8c0.8-2.2-0.3-4.6-2.4-5.4c-2.2-0.8-4.6,0.3-5.4,2.4
			l-16.8,43.9l-23.4,8c1.5,2.3,2.8,4.9,3.7,7.6L1200.8,649.1z"/>
		<path fill="#373737" d="M1263.6,721.1l-17.6-4.8l-20-30.6c-0.9-1.3-2.4-2.1-4-1.9l-35.8,4.4c0.1,0.9,0.2,1.8,0.2,2.7
			c1,1.7,1.9,3.5,2.7,5.4l31.4-3.8l19.5,29.8c0.6,0.9,1.4,1.5,2.4,1.7l19.2,5.2c0.4,0.1,0.7,0.1,1.1,0.1c1.8,0,3.5-1.2,4-3.1
			C1267.1,724,1265.8,721.7,1263.6,721.1z"/>
		<path fill="#373737" d="M1217.1,758.7l3.5,46.5c0.1,1.2,0.7,2.3,1.6,3l17.6,13.4c0.8,0.6,1.7,0.9,2.5,0.9c1.3,0,2.5-0.6,3.3-1.7
			c1.4-1.8,1.1-4.5-0.8-5.9l-16.1-12.3l-3.6-47.6c-0.1-1.8-1.4-3.3-3.2-3.8l-28.5-7.2c-0.4,2.8-0.8,5.5-1.3,8.3L1217.1,758.7z"/>
		<path fill="#373737" d="M1142.1,620.7l26-8.9c0.8-0.3,1.3-1,1.2-1.9l-4.5-38.8c-0.1-1-1-1.6-1.9-1.5c-1,0.1-1.6,1-1.5,1.9
			l4.3,37.4l-26.6,9.2C1140.1,618.8,1141.1,619.7,1142.1,620.7z"/>
		<path fill="#373737" d="M1142.6,633.5c-1.3-7.8-8.2-13.8-16.4-13.8c-8.2,0-15.1,6-16.4,13.8H1142.6z"/>
		<path fill="#373737" d="M1126.2,661.9c22.6,0,40.1,6.2,51.7,17.8l-6.2-19.4c-4.1-12.7-15.7-21.2-29.1-21.2h-32.8
			c-13.3,0-25,8.5-29.1,21.2l-6.2,19.4C1086.2,668,1103.6,661.9,1126.2,661.9z"/>
		<path fill="#373737" d="M1104.3,764.4c-16,2.4-27.9,7.7-32.4,10.1c3.6,10,8.2,19.3,13.6,27.5c4.3-3.4,14.4-9.5,27.7-11.6
			c17.7-2.7,34.8,2.5,50.8,15.7c5.7-7.8,10.7-17.1,14.7-27C1149.4,762.1,1122.1,761.7,1104.3,764.4z"/>
		<path fill="#373737" d="M1160.6,810.4c-35.1-28.9-66-8.3-71.8-3.9c10.6,14.3,23.6,23.7,37.4,23.7
			C1138.7,830.2,1150.6,822.5,1160.6,810.4z"/>
		<path fill="#373737" d="M1188.7,737.7c0.3-3.4,0.4-6.8,0.4-10.1c0-6.3-0.5-11.9-1.6-17c-33.2-16.5-64.2-16.9-84.4-14.2
			c-19.6,2.6-32.9,8.2-37.4,10.3c-1.6,6-2.5,13-2.5,20.9c0,2.2,0.1,4.5,0.2,6.8c5.8-2.8,19.4-8,37.6-10.6
			C1122.1,720.8,1154.2,720.9,1188.7,737.7z"/>
		<path fill="#373737" d="M1188,743.6c-33.4-16.8-64.6-17.1-84.9-14.5c-24.4,3.2-39,11.1-39.1,11.2c0.2-0.1,0.2-0.2,0.3-0.2
			l-0.4-0.4c1,9.8,3.1,19.8,6.2,29.5c5.6-2.9,17.1-7.7,32-10.1c18.8-3,47.6-2.9,78.5,14.7C1184.2,764,1186.7,753.7,1188,743.6z"/>
		<path fill="#373737" d="M1126.2,667.5c-22.2,0-47.7,6.3-58.1,32.1c7-2.8,18.6-6.5,33-8.6c20.4-2.9,51.3-2.9,84.7,12.5
			C1176.4,674.4,1149.5,667.5,1126.2,667.5z"/>
	</g>
	<g>
		<path fill="#373737" d="M300,545c-0.9-1.6-1.9-3.3-3.1-5c-1.3-1.7-2.8-3.3-4.4-4.9c-1.6-1.6-3.3-3.2-4.9-5
			c-1.6-1.8-3.2-3.6-4.7-5.5c-0.8-0.9-1.6-1.8-2.4-2.7c-0.8-0.9-1.7-1.7-2.6-2.5c-1.8-1.6-3.6-3.1-5.3-4.6c-0.9-0.7-1.8-1.4-2.7-2
			c-0.9-0.6-1.8-1.2-2.7-1.8c-1.8-1.1-3.5-2-5.1-2.9c-1.6-0.8-3.1-1.5-4.5-2.1c-1.4-0.6-2.6-1-3.6-1.4c-2-0.7-3.2-1-3.2-1l-0.2,0.3
			c0,0,0.9,0.8,2.6,2c0.9,0.6,1.9,1.4,3.1,2.2c1.2,0.8,2.5,1.8,4,2.8c0.7,0.5,1.5,1,2.3,1.6c0.8,0.6,1.6,1.1,2.4,1.7
			c0.8,0.6,1.7,1.2,2.5,1.8c0.9,0.6,1.8,1.2,2.7,1.8c1.8,1.3,3.7,2.6,5.5,4c1.8,1.4,3.8,2.7,5.7,4.2c1.9,1.4,3.7,3,5.3,4.7
			c1.6,1.7,3,3.6,4.1,5.5c1.2,1.9,2.2,3.8,3.2,5.5c1.1,1.7,2.2,3.3,3.1,4.7c0,0,0,0.1,0.1,0.1c0.9-0.6,1.9-1.1,2.9-1.6
			C300,545.1,300,545,300,545z"/>
		<path fill="#373737" d="M335.4,546.7c1-1.5,2.1-3,3.1-4.7c1.1-1.7,2.1-3.6,3.2-5.5c1.2-1.9,2.5-3.8,4.1-5.5
			c1.6-1.7,3.4-3.3,5.3-4.7c1.9-1.4,3.9-2.8,5.7-4.2c1.9-1.4,3.7-2.7,5.5-4c0.9-0.6,1.8-1.2,2.7-1.8c0.9-0.6,1.7-1.2,2.5-1.8
			c0.8-0.6,1.6-1.1,2.4-1.7c0.8-0.6,1.5-1.1,2.3-1.6c1.4-1,2.8-2,4-2.8c1.2-0.8,2.2-1.6,3.1-2.2c1.7-1.2,2.6-2,2.6-2l-0.2-0.3
			c0,0-1.2,0.3-3.2,1c-1,0.3-2.2,0.8-3.6,1.4c-1.4,0.5-2.9,1.3-4.5,2.1c-1.6,0.8-3.3,1.8-5.1,2.9c-0.9,0.6-1.8,1.1-2.7,1.8
			c-0.9,0.6-1.8,1.3-2.7,2c-1.8,1.4-3.6,2.9-5.3,4.6c-0.9,0.8-1.7,1.7-2.6,2.5c-0.8,0.9-1.6,1.8-2.4,2.7c-1.6,1.9-3.1,3.7-4.7,5.5
			c-1.6,1.8-3.2,3.4-4.9,5c-1.6,1.6-3.2,3.2-4.4,4.9c-1.3,1.7-2.3,3.4-3.1,5c0,0.1-0.1,0.1-0.1,0.2
			C333.5,545.7,334.4,546.2,335.4,546.7C335.3,546.8,335.4,546.7,335.4,546.7z"/>
		<path fill="#373737" d="M248.9,619.4c-0.9-0.6-1.9-1.1-2.8-1.6c-0.9-0.5-1.9-1.1-2.8-1.6c-1.9-1.1-3.8-2-5.7-3
			c-1.9-1-3.9-1.9-5.8-2.9c-1.9-0.9-3.9-1.8-5.9-2.7c-2-0.9-3.9-1.7-5.9-2.6c-1.2-0.5-2.4-1-3.7-1.5c-0.1-0.4-0.1-0.7-0.2-1.1
			c-0.2-1.2-0.5-2.3-0.7-3.5c-0.2-1.2-0.6-2.3-0.9-3.4c-0.3-1.1-0.7-2.3-1-3.4c-0.3-1.1-0.8-2.2-1.1-3.3c-0.4-1.1-0.8-2.2-1.2-3.3
			c-0.4-1.1-0.9-2.2-1.4-3.3c-0.5-1.1-0.9-2.2-1.5-3.2c-0.5-1.1-1.1-2.1-1.6-3.1l-1.8-3.1c-0.6-1-1.3-2-1.9-3c-0.7-1-1.3-2-2-2.9
			l-2.2-2.8c-0.8-0.9-1.6-1.7-2.4-2.6l-1.2-1.3c-0.4-0.4-0.9-0.8-1.3-1.2c-0.9-0.7-1.8-1.5-2.7-2.2c0.5,1.1,1.1,2.1,1.6,3.1
			c0.3,0.5,0.6,1,0.8,1.5l0.7,1.5c0.5,1,1,2,1.5,3l1.4,3.1c0.5,1,0.8,2.1,1.3,3.1c0.4,1,0.9,2,1.2,3.1l1.1,3.1
			c0.3,1.1,0.7,2.1,1,3.2c0.4,1,0.6,2.1,1,3.2c0.3,1.1,0.7,2.1,0.9,3.2c0.3,1.1,0.6,2.1,0.9,3.2c0.3,1.1,0.6,2.1,0.8,3.2
			c0.5,2.1,1,4.3,1.5,6.4c0.2,1.1,0.4,2.1,0.6,3.2l0.5,3.1l0.4,2.6l2.3,0.9c2,0.8,4,1.6,6,2.3c2,0.8,4,1.5,6,2.2
			c2,0.7,4,1.5,6.1,2.2c2,0.7,4.1,1.4,6.1,2.1c2,0.7,4.1,1.3,6.1,2l3.1,0.9l2.2,0.7c1-1.2,2-2.3,2.9-3.4
			C249.1,619.5,249,619.4,248.9,619.4z"/>
		<path fill="#373737" d="M221.3,649.7c-1.7-1.3-3.3-2.6-5-3.9c-1.7-1.3-3.4-2.6-5.1-3.9c-1.7-1.3-3.4-2.6-5.1-3.8l-2.1-1.5
			l-2.4,1.2c-3.7,1.9-7.3,3.8-10.9,5.8c-1.8,1-3.6,2-5.4,3c-1.8,1-3.6,2-5.4,3c-1.8,1-3.6,2-5.3,3.1c-1.8,1-3.5,2.1-5.3,3.2
			c-3.1,1.9-6.1,3.8-9.2,5.7c-3.5-1.8-7.1-3.5-10.6-5.1c-2.1-1-4.2-1.9-6.3-2.8c-1.1-0.5-2.1-0.9-3.2-1.3c-1.1-0.4-2.2-0.9-3.2-1.3
			c0.9,0.8,1.8,1.5,2.7,2.3c0.9,0.8,1.8,1.5,2.7,2.2c1.8,1.4,3.6,2.9,5.5,4.3c3.7,2.8,7.4,5.5,11.2,8.1l1.3,0.9l1.8-0.8
			c3.8-1.7,7.5-3.5,11.2-5.3c1.9-0.9,3.7-1.8,5.5-2.7c1.8-0.9,3.7-1.9,5.5-2.8c1.8-0.9,3.7-1.9,5.5-2.9c1.8-1,3.6-1.9,5.4-2.9
			c2.9-1.6,5.7-3.2,8.6-4.8c1,0.7,2,1.3,3.1,2c1.8,1.2,3.6,2.3,5.4,3.4c1.8,1.1,3.6,2.2,5.4,3.4c1.4,0.8,2.7,1.6,4.1,2.5
			c1.1-1.8,2.2-3.6,3.3-5.3C223.6,651.6,222.4,650.6,221.3,649.7z"/>
		<path fill="#373737" d="M201.6,702.3c-1.5,0.3-2.9,0.6-4.4,0.9c-2.9,0.6-5.9,1.2-8.8,1.8l-8.8,1.9l-8.7,2l-8.7,2.1l-8.7,2.2
			l-4.1,1l1.1,4.2c1.1,4.2,2.2,8.4,3.4,12.6c1.2,4.2,2.3,8.4,3.6,12.6c1.2,4.2,2.5,8.4,3.7,12.6l1.9,6.3l1.4,4.5
			c-2.4,3.4-4.9,6.8-7.3,10.3c-2.8,4-5.5,8-8.3,12.1c-1.3,2-2.7,4.1-4,6.1l-4,6.2c-1.3,2-2.6,4.1-3.9,6.2c-1.3,2.1-2.6,4.2-3.8,6.3
			c1.7-1.7,3.4-3.5,5.1-5.3c1.7-1.8,3.4-3.6,5-5.4l4.9-5.5c1.6-1.8,3.2-3.7,4.8-5.5c3.2-3.7,6.4-7.4,9.5-11.1
			c3.1-3.7,6.2-7.5,9.3-11.3l1.2-1.4l-0.5-2l-1.6-6.3l-1.6-6.3c-1.1-4.2-2.2-8.4-3.4-12.6c-1.2-4.2-2.3-8.4-3.6-12.6
			c-0.8-2.9-1.7-5.7-2.5-8.6l4.4-1.3l8.6-2.6l8.5-2.7l8.5-2.8c2.8-1,5.7-1.9,8.5-2.9c1.1-0.4,2.1-0.7,3.2-1.1
			c0.3-1.5,0.6-3.1,0.9-4.6L201.6,702.3z"/>
		<path fill="#373737" d="M388.4,622.3l3.1-0.9c2.1-0.6,4.1-1.3,6.1-2c2-0.7,4.1-1.3,6.1-2.1c2-0.7,4.1-1.4,6.1-2.2
			c2-0.7,4-1.5,6-2.2c2-0.7,4-1.5,6-2.3l2.3-0.9l0.4-2.6l0.5-3.1c0.2-1.1,0.4-2.1,0.6-3.2c0.5-2.1,0.9-4.3,1.5-6.4
			c0.3-1.1,0.5-2.1,0.8-3.2c0.3-1.1,0.6-2.1,0.9-3.2c0.3-1.1,0.6-2.1,0.9-3.2c0.3-1,0.6-2.1,1-3.2c0.4-1,0.7-2.1,1-3.2l1.1-3.1
			c0.3-1.1,0.8-2.1,1.2-3.1c0.4-1,0.8-2.1,1.3-3.1l1.4-3.1c0.4-1,1-2,1.5-3l0.7-1.5c0.3-0.5,0.5-1,0.8-1.5c0.5-1,1.1-2,1.6-3.1
			c-0.9,0.7-1.8,1.5-2.7,2.2c-0.4,0.4-0.9,0.8-1.3,1.2l-1.2,1.3c-0.8,0.8-1.6,1.7-2.4,2.6l-2.2,2.8c-0.8,0.9-1.4,1.9-2,2.9
			c-0.7,1-1.3,2-1.9,3l-1.8,3.1c-0.6,1-1.1,2.1-1.6,3.1c-0.5,1-1,2.1-1.5,3.2c-0.5,1.1-0.9,2.2-1.4,3.3c-0.4,1.1-0.9,2.2-1.2,3.3
			c-0.4,1.1-0.8,2.2-1.1,3.3c-0.3,1.1-0.7,2.3-1,3.4c-0.3,1.1-0.6,2.3-0.9,3.4c-0.3,1.1-0.5,2.3-0.7,3.5c-0.1,0.4-0.1,0.7-0.2,1.1
			c-1.2,0.5-2.4,1-3.7,1.5c-2,0.9-4,1.7-5.9,2.6c-2,0.9-3.9,1.8-5.9,2.7c-2,0.9-3.9,1.9-5.8,2.9c-1.9,1-3.8,2-5.7,3
			c-1,0.5-1.9,1-2.8,1.6c-0.9,0.5-1.9,1.1-2.8,1.6c-0.1,0.1-0.2,0.1-0.3,0.2c0.9,1.1,1.9,2.2,2.9,3.4L388.4,622.3z"/>
		<path fill="#373737" d="M415.2,655.3c1.8-1.1,3.6-2.2,5.4-3.4c1.8-1.1,3.6-2.3,5.4-3.4c1-0.7,2-1.3,3.1-2c2.8,1.6,5.7,3.2,8.6,4.8
			c1.8,1,3.6,2,5.4,2.9c1.8,1,3.6,1.9,5.5,2.9c1.8,1,3.7,1.9,5.5,2.8c1.8,0.9,3.7,1.9,5.5,2.7c3.7,1.8,7.4,3.6,11.2,5.3l1.8,0.8
			l1.3-0.9c3.8-2.6,7.5-5.4,11.2-8.1c1.8-1.4,3.7-2.8,5.5-4.3c0.9-0.7,1.8-1.5,2.7-2.2c0.9-0.8,1.8-1.5,2.7-2.3
			c-1.1,0.4-2.2,0.9-3.2,1.3c-1.1,0.4-2.1,0.9-3.2,1.3c-2.1,0.9-4.2,1.9-6.3,2.8c-3.6,1.6-7.1,3.4-10.6,5.1c-3-1.9-6.1-3.8-9.2-5.7
			c-1.8-1.1-3.5-2.1-5.3-3.2c-1.8-1.1-3.5-2.1-5.3-3.1c-1.8-1-3.6-2-5.4-3c-1.8-1-3.6-2-5.4-3c-3.6-2-7.2-3.9-10.9-5.8l-2.4-1.2
			l-2.1,1.5c-1.7,1.2-3.4,2.5-5.1,3.8c-1.7,1.3-3.4,2.6-5.1,3.9c-1.7,1.3-3.3,2.6-5,3.9c-1.2,0.9-2.3,1.8-3.5,2.8
			c1.1,1.7,2.2,3.5,3.3,5.3C412.5,657,413.8,656.2,415.2,655.3z"/>
		<path fill="#373737" d="M495.4,807.9c-1.3-2.1-2.6-4.2-3.9-6.2l-4-6.2c-1.3-2.1-2.7-4.1-4-6.1c-2.7-4.1-5.5-8.1-8.3-12.1
			c-2.4-3.4-4.8-6.9-7.3-10.3l1.4-4.5l1.9-6.3c1.2-4.2,2.5-8.4,3.7-12.6c1.2-4.2,2.4-8.4,3.6-12.6c1.2-4.2,2.3-8.4,3.4-12.6l1.1-4.2
			l-4.1-1l-8.7-2.2l-8.7-2.1l-8.7-2l-8.8-1.9c-2.9-0.6-5.8-1.3-8.8-1.8c-1.5-0.3-2.9-0.6-4.4-0.9l-1-0.2c0.4,1.6,0.7,3.1,0.9,4.6
			c1.1,0.4,2.1,0.7,3.2,1.1c2.8,1,5.7,1.9,8.5,2.9l8.5,2.8l8.5,2.7l8.6,2.6l4.4,1.3c-0.9,2.9-1.7,5.7-2.5,8.6
			c-1.2,4.2-2.4,8.4-3.6,12.6c-1.2,4.2-2.3,8.4-3.4,12.6l-1.6,6.3l-1.6,6.3l-0.5,2l1.2,1.4c3.1,3.8,6.2,7.5,9.3,11.3
			c3.1,3.7,6.3,7.5,9.5,11.1c1.6,1.8,3.2,3.7,4.8,5.5l4.9,5.5c1.6,1.8,3.3,3.6,5,5.4c1.7,1.8,3.4,3.6,5.1,5.3
			C498,812,496.7,809.9,495.4,807.9z"/>
		<path fill="#373737" d="M250.9,783.8c32.8-57.6,40.7-133.8,42-151.1c-13.2-3.2-23.9-9.1-30.2-16.7c-11.5,12.3-75.9,84.7-47.7,133
			C223.1,762.8,236.9,774.3,250.9,783.8z"/>
		<path fill="#373737" d="M369.7,616c-6.2,7.5-16.9,13.4-30.2,16.7c1.4,17.2,9.3,93.4,42,151.1c14-9.5,27.9-21,35.9-34.7
			C445.6,700.7,381.2,628.3,369.7,616z"/>
		<path fill="#373737" d="M375,788c-2.7-4.7-5.2-9.6-7.6-14.5H265.1c-2.4,4.9-4.9,9.8-7.6,14.5c7.2,4.5,14.2,8.5,20.3,12
			c5.5,3.1,10.2,5.8,13.9,8.2c7.3,4.7,15.8,7.3,24.5,7.3c8.7,0,17.2-2.5,24.5-7.3c3.7-2.4,8.5-5.1,13.9-8.2
			C360.8,796.6,367.8,792.6,375,788z"/>
		<path fill="#373737" d="M357.9,751.4h-83.2c-1.9,4.8-3.8,9.6-5.9,14.3h95.1C361.7,761,359.7,756.2,357.9,751.4z"/>
		<path fill="#373737" d="M298.1,658.1c-1,6.9-2.2,14.6-3.8,23h44c-1.6-8.4-2.9-16.2-3.8-23H298.1z"/>
		<path fill="#373737" d="M331.8,634.2c-4.9,0.8-10.1,1.2-15.5,1.2c-5.4,0-10.6-0.4-15.5-1.2c-0.3,3.8-0.8,9.3-1.6,16h34.2
			C332.5,643.5,332,638,331.8,634.2z"/>
		<path fill="#373737" d="M286.9,713.5h58.8c-2.3-8.5-4.2-16.8-5.8-24.6h-47.1C291.1,696.7,289.1,705,286.9,713.5z"/>
		<path fill="#373737" d="M277.5,743.6H355c-2.7-7.5-5-15-7.2-22.3h-63.1C282.6,728.7,280.2,736.1,277.5,743.6z"/>
		<path fill="#373737" d="M316.3,627.6c28,0,51.7-12.4,51.7-27.2c0-10-11-19-26.8-23.7c-5.3,6.2-14.5,10.3-24.9,10.3
			c-10.4,0-19.5-4.1-24.9-10.3c-15.9,4.7-26.8,13.7-26.8,23.7C264.6,615.1,288.2,627.6,316.3,627.6z"/>
		<path fill="#373737" d="M316.3,579.2c11.9,0,21.9-6.9,21.9-15s-10-15-21.9-15c-11.9,0-21.9,6.9-21.9,15S304.4,579.2,316.3,579.2z"
			/>
		<polygon fill="#373737" points="251.5,790.6 251.5,790.6 251.5,790.6 		"/>
		<polygon fill="#373737" points="381.1,790.6 381.1,790.6 381.1,790.6 		"/>
	</g>
</g>
</svg>
